<svg xmlns="http://www.w3.org/2000/svg" viewBox="0 0 306 1056" role="img"
     aria-label="AIの訓練で目指しているもの3つ。1、見たものをなぞる。材料はインターネットの文章、練習は次の1語を当てること。2、人が押した方へ寄せる。材料は人がどちらかを押した記録、練習は押された方に高い点が付くようにすること。3、機械で正誤が付くもの。材料は数学とコード、練習は機械が正解と照らすこと。この3つに、これは価値ある新しさかを測る物差しはない。2で新しさを押させればいいとはならない。ありふれた答えには多くの人が良いと押すが、本物の新しさは少数にしか価値が分からないので、点が付かず訓練で消える。棒の長さは説明のための模式。">
<!--
  ★スマホ用の縦版（図4 fig-reward）。パソコン用は fig-reward.svg（横長 760×556）をそのまま使う
  ★viewBox 306 ＝ 画面375pxで図が出る実寸。書いた数字がそのまま見える大きさになる
  ★最小14px（図5で確定した基準）
  ★横に並んでいた上段3列を縦に積んだ。中間の赤い帯と下段の棒グラフは、横のまま段を分けた
  ★下段の棒の比は元の図と同じ（300 : 17 → 230 : 13。どちらも約17.7 : 1）
  ★★元の横長版から落としたもの ──
    足元の註「棒の長さは説明のための模式で、実測値ではない。」
    → 記事のキャプションが同じことを言っているため（「下段の棒の長さは説明のための
      模式で、人数の実測ではない。」）。二重に書く意味がない
  ★★元の横長版から直したもの ──
    下段の肩の小見出しにあった「②」を「2」にした。
    丸数字はコラム1の①道具の中身／②手続き／③結論とぶつかるため使わない（→ 105 §8-8 ⑪）。
    ★横長版のほうには「②」が残っている。★山田様の判断を待つ
  ★折り返したもの ── 大見出し／赤い帯（3行）／下段の肩の小見出し／1つめのカードの補足
-->
<style>
text{
  font-family:'Hiragino Kaku Gothic ProN','Hiragino Sans','Yu Gothic','Meiryo','Helvetica Neue',Arial,sans-serif;
  font-weight:400; fill:#333;
}
.eyebrow{font-size:14px;font-weight:600;fill:#7d7d7d;letter-spacing:.02em}
.deck{font-size:22px;font-weight:600;fill:#111}
.no{font-size:14px;font-weight:600;fill:#fff}
.label{font-size:17px;font-weight:600;fill:#111}
.key{font-size:14px;fill:#7d7d7d}
.val{font-size:14px;fill:#333}
.sub{font-size:14px;fill:#7d7d7d}
.mid{font-size:16px;font-weight:600;fill:#111}
.bar{font-size:14px;font-weight:600;fill:#333}
</style>

<rect width="306" height="1056" fill="#fff"/>

<text class="eyebrow" x="14" y="22">AIの訓練で目指しているもの</text>
<text class="deck" x="14" y="58">3つある。</text>
<text class="deck" x="14" y="86">どれも「新しさ」ではない</text>

<!-- ============ 1 見たものをなぞる（110〜278） ============ -->
<rect x="14" y="110" width="278" height="168" rx="6" fill="#fff" stroke="#c4c4c4" stroke-width="1"/>
<circle cx="42" cy="136" r="11" fill="#9a9a9a"/><text class="no" x="42" y="141" text-anchor="middle">1</text>
<text class="label" x="62" y="142">見たものをなぞる</text>
<path d="M30 158 L276 158" stroke="#ececec" stroke-width="1"/>
<text class="key" x="30" y="184">材料</text><text class="val" x="68" y="184">インターネットの文章</text>
<text class="key" x="30" y="210">練習</text><text class="val" x="68" y="210">次の1語を当てる</text>
<text class="sub" x="30" y="240">珍しい語にも、正しい</text>
<text class="sub" x="30" y="260">確率を付けるよう鍛える</text>

<path d="M147 282 L153 288 L159 282" stroke="#9a9a9a" stroke-width="1.5" fill="none"/>

<!-- ============ 2 人が押した方へ寄せる（296〜464） ============ -->
<rect x="14" y="296" width="278" height="168" rx="6" fill="#fff" stroke="#c4c4c4" stroke-width="1"/>
<circle cx="42" cy="322" r="11" fill="#9a9a9a"/><text class="no" x="42" y="327" text-anchor="middle">2</text>
<text class="label" x="62" y="328">人が押した方へ寄せる</text>
<path d="M30 344 L276 344" stroke="#ececec" stroke-width="1"/>
<text class="key" x="30" y="370">材料</text><text class="val" x="68" y="370">人がどちらかを押した記録</text>
<text class="key" x="30" y="396">練習</text><text class="val" x="68" y="396">押された方に高い点</text>
<text class="sub" x="30" y="426">多数決で点が付く</text>

<path d="M147 468 L153 474 L159 468" stroke="#9a9a9a" stroke-width="1.5" fill="none"/>

<!-- ============ 3 機械で正誤が付くもの（482〜650） ============ -->
<rect x="14" y="482" width="278" height="168" rx="6" fill="#fff" stroke="#c4c4c4" stroke-width="1"/>
<circle cx="42" cy="508" r="11" fill="#9a9a9a"/><text class="no" x="42" y="513" text-anchor="middle">3</text>
<text class="label" x="62" y="514">機械で正誤が付くもの</text>
<path d="M30 530 L276 530" stroke="#ececec" stroke-width="1"/>
<text class="key" x="30" y="556">材料</text><text class="val" x="68" y="556">数学・コード</text>
<text class="key" x="30" y="582">練習</text><text class="val" x="68" y="582">機械が正解と照らす</text>
<text class="sub" x="30" y="612">正解表が書ける場所だけ</text>

<!-- ============ 中間の一行（678〜778） ============ -->
<rect x="14" y="678" width="278" height="100" rx="6" fill="#fdf0ee" stroke="#c0392b" stroke-width="1"/>
<text class="mid" x="32" y="710">この3つに、</text>
<text class="mid" x="32" y="734">「これは価値ある新しさか」を</text>
<text class="mid" x="32" y="758">測る物差しは入っていない</text>

<!-- ============ 下段 多数決では拾えない ============ -->
<text class="eyebrow" x="14" y="814">では、2で「どちらが新しいか」を</text>
<text class="eyebrow" x="14" y="836">押させればよいのか</text>

<rect x="14" y="852" width="278" height="186" rx="6" fill="#f7f7f7" stroke="#c4c4c4" stroke-width="1"/>

<text class="bar" x="30" y="882">ありふれた答え</text>
<rect x="30" y="892" width="230" height="13" rx="2" fill="#9a9a9a"/>
<text class="sub" x="30" y="928" fill="#333">多くの人が「良い」と押す</text>

<text class="bar" x="30" y="964">本物の新しさ</text>
<rect x="30" y="974" width="13" height="13" rx="2" fill="#c0392b"/>
<text class="sub" x="30" y="1010" fill="#333">少数にしか価値が分からない</text>
<text class="sub" x="30" y="1030" fill="#c0392b">→ 点が付かないので、訓練で消える</text>
</svg>
