<?xml version="1.0" standalone="no"?>
<!DOCTYPE svg PUBLIC "-//W3C//DTD SVG 20010904//EN"
 "http://www.w3.org/TR/2001/REC-SVG-20010904/DTD/svg10.dtd">
<svg version="1.0" xmlns="http://www.w3.org/2000/svg"
 width="512" height="512" viewBox="-140.20000000000005 -854.2 3084.4 3084.4"
 preserveAspectRatio="xMidYMid meet">
<metadata>
Created by potrace 1.16, written by Peter Selinger 2001-2019
</metadata>
<g transform="translate(0.000000,1376.000000) scale(0.100000,-0.100000)"
fill="#0A2463" stroke="none">
<path d="M14000 13748 c0 -7 -18 -29 -40 -48 l-40 -35 0 -106 c0 -99 2 -108
22 -121 22 -15 22 -15 -29 -66 -35 -35 -60 -52 -77 -52 -15 0 -30 -8 -36 -20
-7 -13 -21 -20 -40 -20 -19 0 -33 -7 -40 -20 -8 -16 -21 -20 -60 -20 -39 0
-52 -4 -60 -19 -6 -12 -23 -21 -43 -23 -28 -3 -32 -7 -35 -35 -2 -20 -11 -37
-23 -43 -16 -9 -19 -22 -19 -80 0 -59 -3 -71 -20 -80 -13 -7 -20 -21 -20 -40
0 -19 -7 -33 -20 -40 -13 -7 -20 -21 -20 -40 0 -19 -7 -33 -20 -40 -13 -7 -20
-21 -20 -40 0 -19 -7 -33 -20 -40 -16 -8 -20 -21 -20 -60 0 -39 -4 -52 -20
-60 -18 -9 -20 -21 -20 -100 0 -79 2 -91 20 -100 13 -7 20 -21 20 -40 0 -19 7
-33 20 -40 13 -7 20 -21 20 -40 0 -19 7 -33 20 -40 12 -7 20 -21 20 -38 0 -19
12 -37 40 -62 28 -25 40 -43 40 -62 0 -17 8 -31 20 -38 12 -6 20 -21 20 -36 0
-33 48 -81 86 -86 l29 -3 3 -132 c2 -120 4 -134 22 -143 18 -10 20 -22 20
-140 0 -119 2 -130 20 -140 18 -9 20 -21 20 -100 0 -79 -2 -91 -20 -100 -19
-10 -20 -21 -20 -220 0 -199 1 -210 20 -220 18 -10 20 -21 20 -116 0 -103 1
-106 29 -135 24 -23 38 -29 75 -29 35 0 48 5 56 20 7 13 21 20 41 20 17 0 32
6 35 15 3 8 14 17 25 20 25 8 24 41 -1 48 -18 5 -20 14 -20 96 0 80 -2 92 -20
101 -17 9 -20 21 -20 80 0 59 3 71 20 80 18 10 20 21 20 140 0 119 2 130 20
140 18 10 20 23 22 183 3 154 5 172 21 175 14 3 17 -4 17 -32 0 -25 6 -38 20
-46 17 -9 20 -21 20 -80 0 -59 3 -71 20 -80 19 -10 20 -21 20 -320 0 -296 1
-310 19 -320 12 -6 21 -23 23 -43 l3 -32 92 -3 c84 -2 93 -1 103 18 7 13 21
20 40 20 19 0 33 7 40 20 12 22 64 28 75 10 4 -6 -48 -64 -114 -130 -80 -78
-121 -126 -121 -140 0 -14 -35 -56 -100 -120 -67 -66 -100 -106 -100 -121 0
-13 -16 -37 -39 -58 -25 -23 -40 -47 -43 -66 -3 -26 -8 -31 -38 -35 -30 -4
-35 -9 -38 -34 -3 -21 -26 -51 -82 -106 -56 -55 -79 -85 -82 -106 -2 -24 -8
-30 -32 -32 -33 -4 -132 -95 -121 -111 14 -24 57 -11 96 29 22 22 49 40 60 40
13 0 45 25 79 60 35 37 66 60 79 60 15 0 97 76 261 240 159 160 246 240 260
240 30 0 118 91 122 126 2 24 8 30 32 32 43 5 57 -15 26 -39 l-25 -19 23 -19
c12 -11 22 -31 22 -45 0 -15 8 -30 20 -36 13 -7 20 -21 20 -40 0 -19 7 -33 20
-40 13 -7 20 -21 20 -40 0 -19 7 -33 20 -40 40 -22 25 -57 -60 -140 -52 -51
-80 -86 -80 -100 0 -14 -22 -44 -60 -80 -37 -36 -60 -66 -60 -79 0 -15 -52
-74 -160 -181 -105 -104 -160 -166 -160 -180 0 -14 -62 -82 -180 -200 -122
-121 -180 -186 -180 -201 0 -13 -23 -44 -60 -79 -43 -41 -60 -65 -60 -84 0
-15 -8 -30 -20 -36 -13 -7 -20 -21 -20 -40 0 -19 -7 -33 -20 -40 -16 -8 -20
-21 -20 -60 0 -39 -4 -52 -20 -60 -16 -8 -20 -21 -20 -60 0 -39 -4 -52 -20
-60 -11 -6 -20 -20 -20 -32 0 -12 -10 -32 -22 -45 -26 -28 -14 -46 28 -41 23
2 30 9 35 35 3 18 22 47 43 66 23 22 36 43 36 60 0 16 8 31 20 37 13 7 20 21
20 40 0 19 7 33 20 40 12 7 20 21 20 38 0 19 12 37 40 62 25 22 40 44 40 58 0
16 25 49 80 102 50 49 80 86 80 100 0 14 65 86 200 220 132 132 200 206 200
220 0 14 49 70 140 160 91 90 140 146 140 160 0 28 132 160 160 160 12 0 43
-22 70 -50 l50 -49 0 -101 0 -101 -100 -99 c-65 -64 -100 -106 -100 -120 0
-14 -29 -50 -80 -100 -50 -49 -80 -86 -80 -100 0 -14 -59 -80 -180 -200 -120
-119 -180 -186 -180 -200 0 -14 -36 -57 -100 -120 -65 -64 -100 -106 -100
-120 0 -14 -35 -56 -100 -120 -74 -73 -100 -105 -100 -124 0 -15 -8 -30 -20
-36 -12 -7 -20 -21 -20 -38 0 -19 -12 -37 -40 -62 -36 -31 -40 -40 -40 -82 0
-37 -4 -50 -20 -58 -13 -7 -20 -21 -20 -40 0 -19 -7 -33 -20 -40 -13 -7 -20
-21 -20 -40 0 -19 -7 -33 -20 -40 -16 -8 -20 -21 -20 -60 0 -39 -4 -52 -20
-60 -13 -7 -20 -21 -20 -40 0 -19 -7 -33 -20 -40 -13 -7 -20 -21 -20 -40 0
-19 -7 -33 -20 -40 -16 -8 -20 -21 -20 -60 0 -39 -4 -52 -20 -60 -16 -8 -20
-21 -20 -60 0 -39 -4 -52 -20 -60 -16 -8 -20 -21 -20 -60 0 -39 -4 -52 -20
-60 -16 -8 -20 -21 -20 -60 0 -39 -4 -52 -20 -60 -13 -7 -20 -21 -20 -40 0
-19 -7 -33 -20 -40 -16 -8 -20 -21 -20 -60 0 -39 -4 -52 -20 -60 -13 -7 -20
-21 -20 -40 0 -19 -7 -33 -20 -40 -16 -8 -20 -21 -20 -60 0 -39 -4 -52 -20
-60 -13 -7 -20 -21 -20 -40 0 -19 -7 -33 -20 -40 -13 -7 -20 -21 -20 -40 0
-19 -7 -33 -20 -40 -13 -7 -20 -21 -20 -40 0 -19 -7 -33 -20 -40 -12 -7 -20
-21 -20 -38 0 -19 -12 -37 -40 -62 -26 -23 -40 -44 -40 -60 0 -16 -14 -37 -40
-60 -26 -23 -40 -44 -40 -60 0 -16 -14 -37 -40 -60 -28 -25 -40 -43 -40 -62 0
-17 -8 -31 -20 -38 -13 -7 -20 -21 -20 -40 0 -19 -7 -33 -20 -40 -12 -7 -20
-21 -20 -38 0 -19 -12 -37 -40 -62 -26 -22 -40 -44 -40 -59 0 -15 -15 -37 -41
-61 -44 -39 -45 -60 -3 -60 32 0 204 169 204 200 0 14 43 64 120 140 77 76
120 126 120 140 0 14 92 113 280 300 188 187 280 286 280 300 0 14 43 64 120
140 78 77 120 126 120 140 0 14 48 69 140 160 91 90 140 146 140 160 0 14 68
88 200 220 132 131 200 206 200 220 0 14 68 89 200 220 133 132 200 206 200
220 0 14 43 63 120 140 84 83 120 126 120 142 0 14 15 36 40 58 l40 35 0 83 0
82 -110 110 c-81 81 -116 110 -134 110 -15 0 -30 8 -36 20 -6 12 -21 20 -36
20 -33 0 -84 51 -84 84 0 15 -8 30 -20 36 -16 8 -20 21 -20 59 0 39 -4 51 -22
63 -27 18 -16 38 22 38 19 0 33 -7 40 -20 7 -13 21 -20 40 -20 20 0 31 -6 35
-20 3 -11 15 -20 25 -20 9 0 20 9 23 20 3 11 12 20 21 20 23 0 20 -37 -4 -43
-36 -9 -26 -57 20 -97 24 -21 40 -44 40 -58 0 -30 131 -162 160 -162 30 0 80
-53 80 -84 0 -15 8 -30 20 -36 17 -9 20 -21 20 -80 0 -59 -3 -71 -20 -80 -16
-9 -20 -21 -20 -65 l0 -54 38 -3 c47 -4 52 -32 5 -36 -24 -2 -33 1 -38 17 -3
12 -15 21 -26 21 -15 0 -19 -7 -19 -31 0 -25 -12 -43 -60 -89 -55 -53 -60 -62
-60 -100 0 -39 -5 -47 -80 -120 -59 -57 -80 -85 -80 -104 0 -15 -8 -30 -20
-36 -12 -7 -20 -21 -20 -38 0 -19 -12 -37 -40 -62 -28 -25 -40 -43 -40 -62 0
-17 -8 -31 -20 -38 -12 -7 -20 -21 -20 -38 0 -19 -12 -37 -40 -62 -26 -23 -40
-44 -40 -60 0 -16 -14 -37 -40 -60 -26 -23 -40 -44 -40 -60 0 -16 -14 -37 -40
-60 -37 -32 -40 -39 -40 -87 0 -31 4 -53 11 -53 5 0 136 126 289 280 189 189
286 280 300 280 14 0 63 43 140 120 78 79 126 120 140 120 14 0 50 29 100 80
51 52 86 80 100 80 14 0 44 22 80 60 37 39 66 60 80 60 14 0 38 16 61 42 l38
43 30 -30 c36 -33 39 -51 11 -60 -14 -4 -20 -15 -20 -35 0 -19 7 -33 20 -40
15 -8 20 -21 20 -56 0 -44 -1 -46 -150 -194 -98 -98 -157 -150 -171 -150 -28
0 -79 -53 -79 -83 0 -14 -9 -31 -22 -39 -26 -18 -17 -38 18 -38 19 0 47 22
104 80 51 52 86 80 100 80 14 0 44 22 80 60 41 43 65 60 83 60 14 0 29 -5 32
-10 9 -15 -171 -190 -195 -190 -13 0 -72 -52 -160 -140 -96 -96 -147 -140
-163 -140 -26 -1 -82 -54 -72 -69 15 -25 61 -11 96 29 22 26 43 40 59 40 16 0
37 14 60 40 22 25 44 40 59 40 15 0 43 20 81 60 41 43 65 60 84 60 15 0 30 8
36 21 10 17 19 20 63 17 l52 -3 3 -68 3 -68 -61 -59 c-36 -35 -60 -66 -60 -79
0 -27 -93 -121 -120 -121 -25 0 -125 -95 -115 -109 17 -28 58 -10 116 49 38
39 66 60 81 60 14 0 36 15 57 40 42 50 61 52 61 5 0 -24 -6 -37 -20 -45 -12
-6 -20 -21 -20 -36 0 -19 -17 -43 -60 -84 -40 -38 -60 -66 -60 -81 0 -15 -15
-37 -40 -59 -63 -56 -53 -97 25 -102 47 -3 50 -5 53 -31 3 -23 -5 -36 -37 -66
-24 -23 -41 -47 -41 -60 0 -28 -52 -81 -79 -81 -14 0 -64 -43 -141 -120 -66
-66 -125 -120 -130 -120 -6 0 -10 -9 -10 -20 0 -17 7 -20 53 -20 48 0 55 3 87
40 23 26 44 40 60 40 16 0 37 14 60 40 22 25 44 40 59 40 15 0 43 20 82 61 57
59 59 60 106 57 l48 -3 3 -47 3 -47 -130 -131 c-81 -80 -138 -130 -151 -130
-21 0 -240 -209 -240 -229 0 -6 -5 -11 -12 -11 -7 0 -38 -27 -69 -60 -35 -38
-64 -60 -78 -60 -31 0 -121 -92 -121 -124 0 -15 -8 -30 -20 -36 -16 -9 -20
-21 -20 -65 0 -68 14 -71 61 -15 24 28 42 40 61 40 17 0 31 8 38 20 7 12 21
20 38 20 19 0 37 12 62 40 25 28 43 40 62 40 17 0 31 8 38 20 7 13 21 20 40
20 19 0 33 7 40 20 7 13 21 20 40 20 19 0 33 7 40 20 7 12 21 20 38 20 19 0
37 12 62 40 22 25 44 40 58 40 16 0 49 26 103 81 66 67 83 80 106 77 23 -2 29
-8 31 -35 2 -24 -2 -34 -17 -43 -13 -6 -21 -21 -21 -36 0 -32 -209 -244 -241
-244 -29 0 -77 -51 -81 -86 -2 -24 -8 -30 -32 -32 -21 -3 -59 -34 -147 -123
-77 -77 -125 -119 -139 -119 -13 0 -46 -25 -82 -60 -33 -33 -64 -60 -69 -60
-5 0 -9 -9 -9 -20 0 -27 37 -27 45 0 5 16 15 20 55 20 39 0 52 4 60 20 6 12
21 20 36 20 19 0 43 17 84 60 38 40 66 60 81 60 15 0 37 15 59 40 23 26 44 40
60 40 16 0 37 14 60 40 22 25 44 40 58 40 16 0 49 26 103 81 l78 80 48 -3 c45
-3 48 -5 51 -33 3 -19 18 -43 43 -66 26 -24 39 -44 39 -62 0 -16 8 -30 20 -37
27 -14 27 -65 1 -80 -12 -6 -21 -23 -23 -43 -3 -27 -7 -32 -32 -35 -21 -3 -47
-22 -86 -62 -39 -40 -65 -59 -86 -62 -25 -3 -30 -8 -34 -38 -4 -30 -9 -36 -33
-38 -21 -3 -61 -35 -148 -123 -66 -65 -124 -119 -129 -119 -6 0 -10 -9 -10
-20 0 -17 7 -20 53 -20 48 0 55 3 87 40 23 26 44 40 60 40 16 0 37 14 60 40
25 28 43 40 62 40 17 0 31 8 38 20 7 12 21 20 38 20 19 0 37 12 62 40 25 28
43 40 62 40 17 0 31 8 38 20 7 13 21 20 40 20 19 0 33 7 40 21 9 15 19 19 43
17 28 -3 32 -7 35 -35 2 -24 -2 -34 -17 -43 -14 -7 -21 -21 -21 -40 0 -19 -7
-33 -20 -40 -16 -8 -20 -21 -20 -60 0 -39 -4 -52 -20 -60 -16 -8 -20 -21 -20
-60 0 -39 -4 -52 -20 -60 -13 -7 -20 -21 -20 -40 0 -19 -7 -33 -20 -40 -13 -7
-20 -21 -20 -40 0 -19 -7 -33 -20 -40 -13 -7 -20 -21 -20 -40 0 -19 -7 -33
-20 -40 -12 -7 -20 -21 -20 -38 0 -19 -12 -37 -40 -62 -36 -31 -40 -40 -40
-82 0 -37 -4 -50 -20 -58 -13 -7 -20 -21 -20 -40 0 -19 -7 -33 -20 -40 -13 -7
-20 -21 -20 -40 0 -19 -7 -33 -20 -40 -13 -7 -20 -21 -20 -40 0 -19 -7 -33
-20 -40 -13 -7 -20 -21 -20 -40 0 -19 -7 -33 -20 -40 -18 -9 -20 -21 -20 -100
0 -79 -2 -91 -20 -100 -19 -10 -20 -21 -20 -180 0 -159 -1 -170 -20 -180 -19
-10 -20 -21 -20 -155 l0 -145 -230 -230 c-151 -151 -237 -230 -250 -230 -14 0
-77 -57 -180 -160 -104 -105 -166 -160 -180 -160 -30 0 -118 -91 -122 -126 -2
-24 -8 -30 -32 -32 -21 -3 -63 -38 -166 -142 -103 -104 -145 -139 -166 -142
-25 -3 -30 -8 -34 -38 -4 -30 -9 -35 -34 -38 -21 -3 -47 -22 -87 -63 -35 -37
-65 -59 -79 -59 -14 0 -49 -28 -100 -80 -51 -52 -86 -80 -100 -80 -14 0 -44
-22 -80 -60 -36 -37 -66 -60 -79 -60 -15 0 -56 -35 -121 -99 -71 -72 -106
-100 -127 -103 -24 -3 -28 -8 -31 -40 -4 -51 16 -50 61 2 23 28 42 40 60 40
16 0 30 8 37 20 7 12 21 20 38 20 19 0 37 12 62 40 25 28 43 40 62 40 17 0 31
8 38 20 7 12 21 20 38 20 19 0 37 12 62 40 23 26 44 40 60 40 16 0 37 14 60
40 23 26 44 40 60 40 16 0 37 14 60 40 23 26 44 40 60 40 16 0 37 14 60 40 22
25 44 40 59 40 15 0 43 20 81 60 38 40 66 60 81 60 15 0 37 15 59 40 22 25 44
40 59 40 15 0 43 20 81 60 38 40 66 60 81 60 15 0 37 15 59 40 25 28 43 40 62
40 17 0 31 8 38 20 7 13 21 20 40 20 19 0 33 7 40 20 7 13 21 20 40 20 19 0
33 7 40 20 7 13 21 20 40 20 19 0 33 7 40 20 7 13 21 20 40 20 19 0 33 7 40
20 7 13 21 20 40 20 19 0 33 7 40 20 8 16 21 20 60 20 39 0 52 4 60 20 7 13
21 20 40 20 19 0 33 7 40 20 7 13 21 20 40 20 19 0 33 7 40 20 7 13 21 20 40
20 19 0 33 7 40 20 8 16 21 20 60 20 39 0 52 4 60 20 8 16 21 20 60 20 39 0
52 4 60 20 7 13 21 20 40 20 38 0 49 -20 22 -38 -13 -9 -22 -25 -22 -41 0 -18
-13 -37 -40 -61 -25 -22 -40 -44 -40 -58 0 -16 -36 -59 -119 -141 -89 -88
-120 -126 -123 -147 -2 -25 -8 -29 -35 -32 -20 -2 -37 -11 -43 -23 -8 -15 -21
-19 -60 -19 -39 0 -52 -4 -60 -20 -9 -17 -21 -20 -80 -20 -59 0 -71 -3 -80
-20 -7 -13 -21 -20 -40 -20 -19 0 -33 -7 -40 -20 -7 -13 -21 -20 -40 -20 -19
0 -33 -7 -40 -20 -9 -17 -21 -20 -78 -20 -66 0 -68 -1 -102 -40 -21 -24 -44
-40 -58 -40 -16 0 -106 -83 -322 -300 -206 -206 -306 -300 -321 -300 -13 0
-44 -23 -79 -60 -38 -40 -66 -60 -81 -60 -15 0 -37 -15 -59 -40 -21 -24 -44
-40 -58 -40 -33 0 -282 -251 -282 -284 0 -15 -8 -30 -20 -36 -16 -8 -20 -21
-20 -58 0 -42 -4 -51 -40 -82 -28 -25 -40 -43 -40 -62 0 -17 -8 -31 -20 -38
-13 -7 -20 -21 -20 -40 0 -19 -7 -33 -20 -40 -13 -7 -20 -21 -20 -40 0 -38 19
-48 41 -22 9 12 29 22 43 22 15 0 30 8 36 20 7 13 21 20 40 20 19 0 33 7 40
20 7 13 21 20 40 20 19 0 33 7 40 20 7 12 21 20 38 20 19 0 37 12 62 40 25 28
43 40 62 40 17 0 31 8 38 20 7 13 21 20 40 20 19 0 33 7 40 20 7 13 21 20 40
20 19 0 33 7 40 20 7 13 21 20 40 20 19 0 33 7 40 20 7 12 21 20 38 20 19 0
37 12 62 40 23 26 44 40 60 40 16 0 37 14 60 40 23 26 44 40 60 40 16 0 37 14
60 40 23 26 44 40 60 40 16 0 37 14 60 40 23 26 44 40 60 40 16 0 37 14 60 40
23 26 44 40 60 40 16 0 37 14 60 40 23 26 44 40 60 40 16 0 37 14 60 40 23 26
44 40 60 40 16 0 37 14 60 40 22 25 44 40 59 40 15 0 43 20 81 60 36 38 66 60
80 60 15 0 55 33 121 102 l99 101 30 -29 c24 -24 29 -37 30 -76 0 -37 4 -50
20 -58 13 -7 20 -21 20 -40 0 -19 7 -33 20 -40 13 -7 20 -21 20 -40 0 -19 7
-33 20 -40 13 -7 20 -21 20 -40 0 -19 7 -33 20 -40 12 -7 20 -21 20 -37 0 -18
13 -38 41 -64 l41 -38 -30 -31 c-18 -18 -41 -30 -56 -30 -15 0 -30 -8 -36 -20
-7 -13 -21 -20 -40 -20 -19 0 -33 -7 -40 -20 -7 -12 -21 -20 -38 -20 -19 0
-37 -12 -62 -40 -23 -26 -44 -40 -60 -40 -16 0 -37 -14 -60 -40 -22 -25 -44
-40 -58 -40 -16 0 -49 -25 -102 -80 -51 -52 -86 -80 -100 -80 -14 0 -44 -22
-80 -60 -37 -38 -66 -60 -80 -60 -14 0 -43 -22 -80 -60 -37 -38 -66 -60 -80
-60 -14 0 -43 -22 -80 -60 -37 -38 -66 -60 -80 -60 -14 0 -43 -22 -80 -60 -36
-37 -66 -60 -79 -60 -13 0 -43 -21 -72 -50 l-49 -50 2 -167 3 -168 6773 -3
c6764 -2 6774 -2 6779 -22 7 -26 39 -26 46 0 3 11 12 20 21 20 9 0 16 8 16 20
0 11 -4 20 -10 20 -5 0 -27 18 -49 40 -22 22 -49 40 -61 40 -14 0 -56 35 -120
100 -64 64 -106 100 -120 100 -14 0 -62 41 -140 120 -77 78 -126 120 -140 120
-14 0 -69 48 -160 140 -91 92 -146 140 -160 140 -14 0 -63 42 -140 120 -77 78
-126 120 -140 120 -14 0 -69 48 -160 140 -91 91 -146 140 -160 140 -14 0 -75
55 -180 160 -104 105 -166 160 -180 160 -14 0 -82 62 -200 180 -118 118 -186
180 -200 180 -14 0 -82 62 -200 180 -118 118 -186 180 -200 180 -14 0 -76 55
-180 160 -104 105 -166 160 -180 160 -14 0 -76 55 -180 160 -104 104 -166 160
-180 160 -14 0 -88 68 -220 200 -131 132 -206 200 -220 200 -14 0 -89 68 -220
200 -153 154 -205 200 -224 200 -15 0 -30 8 -36 20 -10 19 -21 20 -176 20
l-166 0 -29 29 c-16 16 -29 39 -29 51 0 14 -23 44 -60 80 -37 36 -60 66 -60
80 0 30 -52 80 -84 80 -15 0 -30 8 -36 20 -9 18 -21 20 -97 20 l-86 0 -38 -41
c-30 -32 -43 -40 -66 -37 -23 2 -29 8 -31 33 -3 19 -18 43 -43 66 -24 22 -39
45 -39 60 0 15 -14 37 -40 59 -24 21 -40 44 -40 58 0 33 -211 242 -244 242
-15 0 -30 8 -36 20 -15 27 -65 27 -80 0 -6 -12 -21 -20 -36 -20 -14 0 -34 -10
-45 -22 l-19 -23 -19 23 c-11 12 -29 22 -41 22 -14 0 -50 29 -100 80 -51 52
-86 80 -100 80 -14 0 -44 22 -80 60 -41 43 -65 60 -84 60 -15 0 -30 8 -36 20
-7 13 -21 20 -40 20 -19 0 -33 7 -40 20 -7 12 -21 20 -38 20 -19 0 -37 12 -62
40 -22 24 -44 40 -58 40 -16 0 -80 57 -222 200 -153 154 -205 200 -224 200
-15 0 -30 8 -36 20 -16 29 -104 29 -120 0 -18 -34 -60 -25 -100 20 -21 24 -44
40 -58 40 -16 0 -106 83 -322 300 l-300 300 -64 0 c-54 0 -67 3 -76 19 -6 12
-23 21 -43 23 -27 3 -33 7 -35 32 -3 22 -62 86 -263 287 -172 171 -259 265
-259 279 0 14 -62 83 -180 200 -117 117 -180 186 -180 200 0 13 -47 68 -130
150 l-130 130 -160 0 -161 0 -49 50 c-28 28 -50 58 -50 70 0 14 -42 63 -120
140 -79 78 -120 126 -120 140 0 30 -53 80 -84 80 -15 0 -30 -8 -36 -20 -20
-38 -56 -25 -130 50 -42 41 -70 78 -70 90 0 14 -56 76 -160 180 -106 105 -160
166 -160 180 0 14 -36 57 -100 120 -69 68 -100 106 -100 122 0 14 -15 36 -40
58 -28 25 -40 43 -40 62 0 17 -8 31 -20 38 -12 7 -20 21 -20 38 0 19 -12 37
-40 62 -26 23 -40 44 -40 60 0 16 -14 37 -40 60 -25 22 -40 44 -40 59 0 15
-20 43 -60 81 -37 35 -60 66 -60 79 0 14 -33 54 -90 111 l-89 90 -62 0 c-50 0
-64 -4 -78 -22 -18 -22 -19 -20 -459 420 l-441 442 -43 0 c-38 0 -47 -5 -78
-40 -31 -35 -40 -40 -80 -40 -34 0 -48 -5 -58 -20 -20 -33 -42 -25 -42 15 0
24 -6 37 -20 45 -13 7 -20 21 -20 40 0 19 -7 33 -20 40 -13 7 -20 21 -20 38 0
15 -9 35 -20 45 -14 12 -20 29 -20 62 0 34 -5 47 -20 55 -13 7 -20 21 -20 40
0 19 -7 33 -20 40 -13 7 -20 21 -20 38 0 15 -9 35 -20 45 -14 12 -20 29 -20
62 0 34 -5 47 -20 55 -13 7 -20 21 -20 38 0 15 -9 35 -20 45 -14 12 -20 29
-20 62 0 34 -5 47 -20 55 -13 7 -20 21 -20 38 0 15 -9 35 -20 45 -14 12 -20
29 -20 62 0 34 -5 47 -20 55 -13 7 -20 21 -20 40 0 19 -7 33 -20 40 -13 7 -20
21 -20 40 0 19 -7 33 -20 40 -13 7 -20 21 -20 40 0 19 -7 33 -20 40 -12 6 -20
21 -20 36 0 14 -10 34 -22 43 -25 21 -17 41 18 41 15 0 38 12 55 29 23 24 29
38 29 75 0 35 -5 48 -20 56 -16 8 -20 21 -20 60 0 39 -4 52 -20 60 -13 7 -20
21 -20 40 0 19 -7 33 -20 40 -13 7 -20 21 -20 40 0 19 -7 33 -20 40 -13 7 -20
21 -20 40 0 19 -7 33 -20 40 -16 8 -20 21 -20 60 0 39 -4 52 -20 60 -19 10
-20 21 -20 180 0 159 -1 170 -20 180 -19 10 -20 21 -20 180 0 159 -1 170 -20
180 -12 6 -20 21 -20 36 0 15 -12 38 -29 55 -17 17 -40 29 -55 29 -15 0 -30 8
-36 20 -6 12 -21 20 -36 20 -15 0 -38 12 -55 29 -23 24 -29 38 -29 75 0 35 5
48 20 56 12 6 20 21 20 36 0 15 12 38 29 54 25 26 37 29 97 32 67 3 69 4 72
31 4 35 -42 84 -84 89 -24 2 -30 8 -32 33 -3 19 -18 43 -43 66 -21 20 -39 41
-39 47 0 9 -36 12 -120 12 -89 0 -120 -3 -120 -12z m-322 -1146 c2 -23 -2 -34
-17 -42 -19 -9 -21 -22 -23 -143 -3 -109 -6 -132 -18 -132 -11 0 -16 14 -18
52 -2 40 -8 55 -23 63 -12 7 -19 21 -19 39 0 18 -8 34 -22 43 -21 14 -20 16
48 86 38 39 74 70 79 68 6 -1 11 -17 13 -34z m793 -731 c47 -48 48 -51 51
-118 l3 -68 35 -5 c34 -5 35 -6 38 -57 2 -40 8 -55 23 -63 12 -7 19 -21 19
-40 0 -19 7 -33 20 -40 13 -7 20 -21 20 -40 0 -19 7 -33 20 -40 13 -7 20 -21
20 -40 0 -19 7 -33 20 -40 13 -7 20 -21 20 -38 0 -15 9 -35 20 -45 14 -12 20
-29 20 -62 0 -34 5 -47 20 -55 13 -7 20 -21 20 -38 0 -15 9 -35 20 -45 14 -12
20 -29 20 -62 0 -34 5 -47 20 -55 13 -7 20 -21 20 -40 0 -19 7 -33 20 -40 13
-7 20 -21 20 -38 0 -15 9 -35 20 -45 14 -12 20 -29 20 -62 0 -34 5 -47 20 -55
13 -7 20 -21 20 -38 0 -15 9 -35 20 -45 14 -12 20 -29 20 -58 0 -30 6 -46 22
-58 26 -21 17 -41 -19 -41 -18 0 -42 17 -83 60 -36 38 -66 60 -80 60 -14 0
-49 28 -100 80 -57 59 -85 80 -104 80 -15 0 -30 8 -36 20 -8 16 -21 20 -60 20
-39 0 -52 4 -60 20 -7 13 -21 20 -40 20 -19 0 -33 7 -40 19 -8 15 -23 21 -63
23 l-52 3 -3 92 c-2 84 -1 93 18 103 20 11 20 18 20 465 0 338 3 455 12 455 6
0 33 -22 59 -49z m1769 -3801 c0 -5 63 -73 140 -150 89 -88 140 -147 140 -160
0 -28 492 -520 520 -520 28 0 240 -212 240 -240 0 -14 56 -77 160 -180 104
-103 160 -166 160 -180 0 -13 78 -98 230 -250 127 -127 232 -230 234 -230 2 0
70 -66 150 -146 137 -138 165 -174 132 -174 -15 0 -300 281 -310 305 -3 8 -17
15 -32 15 -19 0 -42 16 -84 60 -35 36 -66 60 -79 60 -29 0 -441 411 -441 440
0 13 -62 82 -170 190 -128 129 -176 170 -195 170 -14 0 -29 8 -35 20 -8 15
-21 20 -56 20 -41 0 -50 5 -94 50 -29 28 -50 58 -50 71 0 13 -23 43 -60 79
-40 38 -60 66 -60 81 0 15 -15 37 -40 59 -25 22 -40 44 -40 58 0 16 -25 49
-80 102 -52 51 -80 86 -80 100 0 14 -22 44 -60 80 -40 38 -60 66 -60 81 0 15
-15 37 -40 59 -28 24 -40 43 -40 62 0 18 -7 29 -20 33 -11 3 -20 15 -20 26 0
12 7 19 20 19 11 0 20 -4 20 -10z m-322 -1543 c4 -33 -45 -87 -80 -87 -14 0
-36 -15 -57 -40 -24 -27 -43 -40 -60 -40 -18 0 -37 -13 -60 -40 -26 -30 -42
-40 -64 -40 -20 0 -30 -6 -34 -20 -3 -11 -14 -20 -24 -20 -21 0 -28 40 -6 40
6 0 27 18 46 40 24 27 43 40 60 40 18 0 37 13 60 40 23 26 43 40 59 40 16 0
42 19 80 60 31 33 61 59 67 57 5 -2 11 -16 13 -30z m-518 -347 c0 -13 -7 -20
-20 -20 -13 0 -20 7 -20 20 0 13 7 20 20 20 13 0 20 -7 20 -20z m2695 -485
c14 -14 25 -30 25 -35 0 -5 9 -14 20 -20 13 -7 20 -21 20 -41 0 -18 6 -32 16
-36 20 -8 64 -51 64 -63 0 -5 9 -14 20 -20 13 -7 20 -21 20 -41 0 -18 6 -32
16 -36 44 -17 83 -83 49 -83 -16 0 -65 45 -65 60 0 5 -9 14 -20 20 -13 7 -20
21 -20 41 0 18 -6 32 -16 36 -20 8 -64 51 -64 63 0 5 -9 14 -20 20 -13 7 -20
21 -20 41 0 18 -6 32 -16 36 -24 9 -64 52 -64 68 0 23 26 18 55 -10z m2545
-475 c0 -13 -7 -20 -20 -20 -13 0 -20 7 -20 20 0 13 7 20 20 20 13 0 20 -7 20
-20z m95 -125 c14 -14 25 -28 25 -30 0 -5 100 -105 105 -105 6 0 55 -50 55
-56 0 -2 45 -49 100 -104 73 -72 100 -106 100 -124 0 -16 7 -27 20 -31 11 -3
20 -11 20 -16 0 -6 28 -37 61 -69 63 -59 68 -80 23 -80 -33 0 -84 51 -84 84 0
16 -7 27 -20 31 -11 3 -20 11 -20 16 0 5 -45 54 -100 109 -75 74 -100 105
-100 124 0 14 -4 26 -9 26 -12 0 -67 54 -74 73 -3 9 -20 17 -39 19 -29 3 -33
7 -36 36 -2 17 -7 32 -11 32 -14 0 -71 60 -71 75 0 23 26 18 55 -10z m-2825
-1865 c348 -348 530 -537 530 -550 0 -28 1452 -1480 1481 -1480 13 0 51 -31
100 -80 43 -44 83 -80 89 -80 5 0 10 -9 10 -20 0 -27 -36 -27 -43 0 -4 14 -14
20 -34 20 -20 0 -38 11 -63 40 -23 26 -44 40 -60 40 -16 0 -37 14 -60 40 -23
26 -44 40 -60 40 -16 0 -37 14 -60 40 -22 25 -44 40 -59 40 -15 0 -43 20 -81
60 -35 36 -66 60 -79 60 -29 0 -1241 1211 -1241 1240 0 14 -57 78 -160 180
-106 105 -160 166 -160 180 0 14 -42 63 -120 140 -78 77 -120 126 -120 140 0
14 -42 63 -120 140 -80 79 -120 126 -120 141 0 14 -29 49 -81 99 -45 43 -78
83 -74 89 24 39 52 14 585 -519z"/>
<path d="M13328 10229 c-81 -81 -128 -136 -128 -149 0 -14 -50 -71 -140 -160
-92 -91 -140 -146 -140 -160 0 -14 -42 -63 -120 -140 -77 -76 -120 -126 -120
-140 0 -13 -55 -76 -160 -180 -88 -88 -160 -162 -160 -165 0 -6 -50 -55 -57
-55 -3 0 -21 -18 -40 -40 -19 -22 -41 -40 -49 -40 -9 0 -14 -11 -14 -30 0 -27
-25 -56 -180 -210 -120 -119 -180 -186 -180 -200 0 -14 -36 -57 -100 -120 -65
-64 -100 -106 -100 -120 0 -14 -29 -50 -80 -100 -57 -56 -80 -85 -80 -103 0
-14 -9 -31 -22 -39 -26 -18 -16 -38 19 -38 18 0 42 17 83 60 36 37 66 60 80
60 14 0 55 34 120 100 62 63 106 100 119 100 29 0 641 612 641 641 0 13 30 50
80 99 51 50 80 86 80 100 0 14 35 56 100 120 65 64 100 106 100 120 0 14 29
50 80 100 51 50 80 86 80 100 0 14 29 50 80 100 51 50 80 86 80 100 0 14 29
50 80 100 52 51 80 86 80 100 0 14 22 44 60 80 39 37 60 66 60 81 0 21 53 79
72 79 17 0 7 39 -11 45 -11 3 -22 12 -25 20 -3 9 -17 15 -33 14 -22 0 -55 -28
-155 -130z"/>
<path d="M12957 10140 c-3 -14 -14 -20 -32 -20 -20 0 -60 -34 -185 -160 -104
-105 -166 -160 -180 -160 -14 0 -82 -62 -200 -180 -118 -118 -186 -180 -200
-180 -14 0 -76 -55 -179 -159 -120 -121 -165 -160 -187 -163 -23 -2 -30 -8
-32 -32 -5 -39 -131 -166 -166 -166 -15 0 -30 8 -36 20 -8 15 -21 20 -56 20
-41 0 -50 -5 -94 -50 -28 -27 -50 -58 -50 -70 0 -30 -91 -118 -126 -122 -25
-3 -30 -8 -34 -38 -4 -30 -9 -36 -33 -38 -23 -3 -119 -94 -448 -423 -274 -274
-426 -419 -439 -419 -24 0 -444 -415 -435 -430 11 -18 64 -11 75 10 7 13 21
20 40 20 19 0 33 7 40 20 8 16 21 20 60 20 39 0 52 4 60 20 7 13 21 20 40 20
19 0 33 7 40 20 7 13 21 20 40 20 19 0 33 7 40 20 7 13 21 20 40 20 19 0 33 7
40 20 7 13 21 20 40 20 19 0 33 7 40 20 7 12 21 20 38 20 19 0 37 12 62 40 23
26 44 40 60 40 16 0 37 14 60 40 25 28 43 40 62 40 17 0 31 8 38 20 6 12 21
20 36 20 19 0 43 17 84 60 36 37 66 60 80 60 14 0 55 34 120 100 63 64 106
100 120 100 14 0 81 60 200 180 119 119 186 180 200 180 14 0 63 43 140 120
77 78 126 120 140 120 14 0 63 42 140 120 99 100 124 120 149 120 27 0 30 3
33 38 3 34 6 37 36 40 19 2 36 10 39 19 7 19 62 73 74 73 5 0 9 12 9 28 0 19
12 37 40 62 26 23 40 44 40 60 0 16 14 37 40 60 26 23 40 44 40 60 0 16 14 37
40 60 26 23 40 44 40 60 0 16 14 37 40 60 25 22 40 44 40 59 0 15 20 43 60 81
40 38 60 66 60 81 0 15 15 37 40 59 26 23 40 44 40 60 0 16 14 37 40 60 29 25
40 43 40 63 0 20 6 30 20 34 26 7 27 43 1 43 -10 0 -21 -9 -24 -20z"/>
<path d="M13900 9520 c-80 -83 -122 -119 -138 -119 -16 -1 -50 -28 -102 -81
-51 -52 -86 -80 -100 -80 -14 0 -44 -22 -79 -59 -53 -55 -61 -60 -107 -63 -47
-3 -49 -4 -52 -35 -2 -24 1 -33 17 -38 27 -8 27 -31 1 -45 -13 -7 -20 -21 -20
-40 0 -19 -7 -33 -20 -40 -16 -8 -20 -21 -20 -60 0 -39 -4 -52 -20 -60 -16 -8
-20 -21 -20 -60 0 -39 -4 -52 -20 -60 -13 -7 -20 -21 -20 -40 0 -19 -7 -33
-20 -40 -16 -8 -20 -21 -20 -60 0 -39 -4 -52 -20 -60 -13 -7 -20 -21 -20 -40
0 -19 -7 -33 -20 -40 -17 -9 -20 -21 -20 -80 0 -59 -3 -71 -20 -80 -13 -7 -20
-21 -20 -40 0 -19 -7 -33 -20 -40 -13 -7 -20 -21 -20 -40 0 -19 -7 -33 -20
-40 -13 -7 -20 -21 -20 -40 0 -19 -7 -33 -20 -40 -16 -8 -20 -21 -20 -60 0
-39 -4 -52 -20 -60 -16 -8 -20 -21 -20 -60 0 -39 -4 -52 -20 -60 -13 -7 -20
-21 -20 -40 0 -19 -7 -33 -20 -40 -16 -8 -20 -21 -20 -60 0 -39 -4 -52 -20
-60 -13 -7 -20 -21 -20 -40 0 -19 -7 -33 -20 -40 -16 -8 -20 -21 -20 -60 0
-39 -4 -52 -20 -60 -13 -7 -20 -21 -20 -40 0 -19 -7 -33 -20 -40 -16 -8 -20
-21 -20 -60 0 -39 -4 -52 -20 -60 -13 -7 -20 -21 -20 -40 0 -19 -7 -33 -20
-40 -16 -8 -20 -21 -20 -60 0 -39 -4 -52 -20 -60 -13 -7 -20 -21 -20 -40 0
-19 -7 -33 -20 -40 -13 -7 -20 -21 -20 -40 0 -19 -7 -33 -20 -40 -13 -7 -20
-21 -20 -40 0 -19 -7 -33 -20 -40 -13 -7 -20 -21 -20 -40 0 -19 -7 -33 -20
-40 -13 -7 -20 -21 -20 -40 0 -19 -7 -33 -20 -40 -16 -8 -20 -21 -20 -60 0
-39 -4 -52 -20 -60 -16 -8 -20 -21 -20 -60 0 -39 -4 -52 -20 -60 -13 -7 -20
-21 -20 -40 0 -19 -7 -33 -20 -40 -16 -8 -20 -21 -20 -60 0 -39 -4 -52 -20
-60 -12 -7 -20 -21 -20 -38 0 -19 -12 -37 -40 -62 -36 -31 -40 -40 -40 -82 0
-38 -4 -48 -20 -53 -11 -3 -20 -13 -20 -20 0 -8 9 -19 20 -25 11 -6 20 -17 20
-24 0 -8 -9 -16 -20 -19 -15 -4 -20 -14 -20 -36 0 -20 -7 -34 -20 -41 -13 -7
-20 -21 -20 -40 0 -19 -7 -33 -21 -40 -15 -9 -19 -19 -17 -43 2 -27 8 -33 31
-35 23 -3 38 7 86 57 36 38 67 61 80 61 15 0 68 46 161 140 89 90 146 140 160
140 28 0 440 412 440 441 0 11 18 38 40 60 l40 40 0 104 c0 94 2 105 20 115
16 8 20 21 20 60 0 39 4 52 20 60 13 7 20 21 20 40 0 19 7 33 20 40 17 9 20
21 20 80 0 59 3 71 20 80 22 12 29 80 8 80 -20 0 -108 -98 -108 -121 0 -13
-23 -44 -60 -79 -40 -38 -60 -66 -60 -81 0 -15 -15 -37 -40 -59 -24 -21 -40
-44 -40 -58 0 -33 -211 -242 -244 -242 -42 0 -41 21 3 60 26 24 41 46 41 61 0
15 14 37 40 59 26 23 40 44 40 60 0 16 14 37 40 60 26 23 40 44 40 60 0 16 14
37 40 60 25 22 40 44 40 59 0 15 20 43 60 81 40 38 60 66 60 81 0 15 15 37 40
59 28 25 40 43 40 62 0 17 8 31 20 38 13 7 20 21 20 40 0 19 7 33 20 40 12 7
20 21 20 38 0 19 12 37 40 62 28 25 40 43 40 62 0 17 8 31 20 38 13 7 20 21
20 40 0 19 7 33 20 40 13 7 20 21 20 40 0 19 7 33 20 40 12 7 20 21 20 38 0
19 12 37 40 62 25 22 40 44 40 59 0 15 20 43 60 81 44 43 60 65 60 85 0 18 6
28 20 32 29 8 24 34 -11 62 l-30 23 -78 -81 c-51 -53 -86 -81 -101 -81 -14 0
-72 -51 -180 -161 -88 -88 -164 -158 -170 -154 -18 11 -11 64 10 75 12 7 20
21 20 38 0 19 12 37 40 62 28 25 40 43 40 62 0 17 8 31 20 38 13 7 20 21 20
40 0 19 7 33 20 40 13 7 20 21 20 40 0 19 7 33 20 40 16 8 20 21 20 60 0 39 4
52 20 60 16 8 20 21 20 60 0 39 4 52 20 60 13 7 20 21 20 40 0 19 7 33 20 40
13 7 20 21 20 40 0 19 7 33 20 40 13 7 20 21 20 40 0 19 7 33 20 40 13 7 20
21 20 40 0 19 7 33 20 40 13 7 20 21 20 40 0 19 7 33 20 40 16 8 20 21 20 60
0 39 4 52 20 60 12 6 20 21 20 36 0 19 21 47 80 104 50 49 80 86 80 100 0 14
53 74 160 180 110 110 160 166 160 181 0 21 53 79 72 79 4 0 8 9 8 20 0 18 -6
20 -52 19 l-53 0 -115 -119z"/>
<path d="M12819 8720 c-21 -25 -43 -40 -57 -40 -16 0 -59 -36 -142 -120 -77
-78 -126 -120 -140 -120 -14 0 -69 -48 -160 -140 l-139 -140 -61 0 c-55 0 -65
-3 -91 -29 -26 -27 -29 -36 -29 -95 0 -55 -3 -67 -20 -76 -16 -8 -20 -21 -20
-60 0 -39 -4 -52 -20 -60 -15 -8 -20 -21 -20 -56 0 -44 -1 -46 -150 -194 -104
-105 -157 -150 -172 -150 -14 0 -37 -16 -58 -40 -25 -28 -43 -40 -62 -40 -17
0 -31 -8 -38 -20 -6 -12 -21 -20 -36 -20 -19 0 -43 -17 -83 -59 -40 -41 -66
-60 -87 -63 -25 -3 -30 -8 -34 -38 -4 -31 -9 -36 -40 -40 -30 -4 -35 -9 -38
-35 -3 -19 -18 -43 -43 -66 -24 -22 -39 -45 -39 -60 0 -15 -14 -37 -40 -59
-26 -23 -40 -44 -40 -60 0 -16 -14 -37 -40 -60 -28 -25 -40 -43 -40 -62 0 -17
-8 -31 -20 -38 -12 -7 -20 -21 -20 -38 0 -19 -12 -37 -40 -62 -26 -23 -40 -44
-40 -60 0 -16 -14 -37 -40 -60 -28 -25 -40 -43 -40 -62 0 -17 -8 -31 -20 -38
-12 -7 -20 -21 -20 -38 0 -19 -12 -37 -40 -62 -26 -23 -40 -44 -40 -60 0 -16
-14 -37 -40 -60 -26 -23 -40 -44 -40 -60 0 -16 -14 -37 -40 -60 -26 -23 -40
-44 -40 -60 0 -16 -14 -37 -40 -60 -36 -31 -40 -40 -40 -82 0 -37 -4 -50 -20
-58 -13 -7 -20 -21 -20 -40 0 -19 -7 -33 -20 -40 -13 -7 -20 -21 -20 -40 0
-19 -7 -33 -20 -40 -18 -9 -20 -21 -20 -100 0 -79 -2 -91 -20 -100 -18 -9 -20
-21 -20 -100 0 -79 -2 -91 -20 -100 -18 -10 -20 -21 -20 -120 0 -99 -2 -110
-20 -120 -18 -9 -20 -21 -20 -100 0 -79 -2 -91 -20 -100 -18 -9 -20 -21 -20
-100 0 -79 -2 -91 -20 -100 -18 -9 -20 -21 -20 -100 0 -79 -2 -91 -20 -100
-18 -9 -20 -21 -20 -100 0 -79 -2 -91 -20 -100 -18 -9 -20 -21 -20 -100 0 -79
-2 -91 -20 -100 -13 -7 -20 -21 -20 -40 0 -19 -7 -33 -20 -40 -17 -9 -20 -21
-20 -80 0 -59 -3 -71 -20 -80 -17 -9 -20 -21 -20 -80 0 -59 -3 -71 -20 -80
-17 -9 -20 -21 -20 -80 0 -59 -3 -71 -20 -80 -14 -8 -20 -21 -20 -45 0 -19 5
-35 11 -35 20 0 269 259 269 280 0 13 85 105 240 260 157 157 240 246 240 260
0 31 250 278 287 282 23 2 29 9 31 32 5 39 89 123 128 128 24 2 30 8 32 32 3
21 38 63 143 167 l139 138 0 85 c0 75 2 87 20 96 17 9 20 21 20 80 0 59 3 71
20 80 16 8 20 21 20 60 0 39 4 52 20 60 16 8 20 21 20 60 0 39 4 52 20 60 13
7 20 21 20 40 0 19 7 33 20 40 19 10 20 21 20 220 0 199 -1 210 -20 220 -19
10 -20 21 -20 200 0 179 -1 190 -20 200 -18 10 -20 21 -20 120 0 99 -2 110
-20 120 -16 8 -20 21 -20 60 0 39 -4 52 -20 60 -16 8 -20 21 -20 60 0 39 -4
51 -21 60 -17 10 -20 19 -17 63 3 50 4 52 35 55 24 2 34 -2 43 -17 6 -13 21
-21 36 -21 33 0 84 -51 84 -83 0 -14 10 -32 23 -41 l22 -16 -22 -16 c-20 -14
-23 -25 -23 -85 0 -58 3 -70 20 -79 16 -8 20 -21 20 -60 0 -39 4 -52 20 -60
16 -8 20 -21 20 -60 0 -39 4 -52 20 -60 17 -9 20 -21 20 -80 0 -59 3 -71 20
-80 16 -8 20 -21 20 -60 0 -39 4 -52 20 -60 17 -9 20 -23 22 -103 l3 -92 72
-3 c64 -3 73 -1 83 18 7 13 21 20 40 20 19 0 33 7 40 20 7 13 21 20 40 20 19
0 33 7 40 19 6 12 23 21 43 23 28 3 32 7 35 35 2 20 11 37 23 43 12 7 19 21
19 40 0 19 7 33 20 40 16 8 20 21 20 60 0 39 4 52 20 60 13 7 20 21 20 40 0
19 7 33 20 40 16 8 20 21 20 60 0 39 4 52 20 60 13 7 20 21 20 40 0 19 7 33
20 40 16 8 20 21 20 60 0 39 4 52 20 60 16 8 20 21 20 60 0 39 4 52 20 60 16
8 20 21 20 60 0 39 4 52 20 60 16 8 20 21 20 60 0 39 4 52 20 60 16 8 20 21
20 60 0 39 4 52 20 60 16 8 20 21 20 60 0 39 4 52 20 60 16 8 20 21 20 60 0
39 4 52 20 60 16 8 20 21 20 60 0 39 4 52 20 60 16 8 20 21 20 60 0 39 4 52
20 60 16 8 20 21 20 60 0 39 4 52 20 60 16 8 20 21 20 60 0 39 4 52 20 60 16
8 20 21 20 60 0 39 4 52 20 60 16 8 20 21 20 60 0 39 4 52 20 60 16 9 20 21
20 61 0 42 3 52 20 56 28 8 24 34 -11 61 l-29 24 -90 -91 c-59 -60 -90 -99
-90 -114 0 -13 -16 -36 -40 -57 -26 -23 -40 -44 -40 -60 0 -16 -14 -37 -40
-60 -25 -22 -40 -44 -40 -59 0 -15 -20 -43 -60 -81 -40 -38 -60 -66 -60 -81 0
-15 -15 -37 -40 -59 -26 -23 -40 -44 -40 -60 0 -16 -14 -37 -40 -60 -25 -22
-40 -44 -40 -58 0 -16 -25 -49 -80 -102 -51 -50 -80 -86 -80 -100 0 -14 -35
-56 -100 -120 -66 -65 -100 -106 -100 -120 0 -14 -23 -44 -60 -80 -40 -38 -60
-66 -60 -81 -1 -28 -53 -84 -69 -74 -19 11 -13 63 9 75 12 7 20 21 20 38 0 19
12 37 40 62 26 23 40 44 40 60 0 16 14 37 40 60 28 25 40 43 40 62 0 17 8 31
20 38 12 7 20 21 20 38 0 19 12 37 40 62 26 23 40 44 40 60 0 16 14 37 40 60
28 25 40 43 40 62 0 17 8 31 20 38 13 7 20 21 20 40 0 19 7 33 20 40 12 7 20
21 20 38 0 19 12 37 40 62 28 25 40 43 40 62 0 17 8 31 20 38 12 6 20 21 20
36 0 19 21 47 80 104 51 50 80 86 80 100 0 14 47 68 140 160 94 93 140 146
140 161 0 13 23 43 60 79 38 37 60 66 60 80 0 14 22 43 60 80 48 46 60 64 60
89 0 43 -20 40 -61 -9z"/>
<path d="M10980 7400 c-23 -26 -44 -40 -60 -40 -16 0 -37 -14 -60 -40 -23 -26
-44 -40 -60 -40 -16 0 -37 -14 -60 -40 -25 -28 -43 -40 -62 -40 -17 0 -31 -8
-38 -20 -8 -16 -21 -20 -60 -20 -39 0 -52 -4 -60 -20 -8 -16 -21 -20 -60 -20
-39 0 -52 -4 -60 -20 -7 -13 -21 -20 -40 -20 -19 0 -33 -7 -40 -20 -8 -15 -21
-20 -55 -20 l-45 0 -490 -490 c-270 -270 -490 -492 -490 -495 0 -2 -11 -16
-25 -30 -29 -28 -55 -33 -55 -10 0 15 57 75 71 75 5 0 9 12 9 28 0 19 12 37
40 62 26 23 40 44 40 60 0 16 14 37 40 60 26 23 40 44 40 60 0 16 14 37 40 60
26 23 40 44 40 60 0 16 14 37 40 60 26 23 40 44 40 60 0 16 14 37 40 60 25 22
40 44 40 59 0 15 20 43 60 81 37 36 60 66 60 80 0 30 50 78 86 82 26 3 29 7
29 38 l0 35 -72 3 c-61 2 -73 6 -78 22 -8 26 -31 26 -45 0 -6 -11 -17 -20 -25
-20 -7 0 -17 9 -20 20 -17 53 -46 30 -385 -310 -223 -223 -330 -337 -330 -351
0 -13 -30 -50 -80 -99 -51 -50 -80 -86 -80 -100 0 -14 -29 -50 -80 -100 -50
-49 -80 -86 -80 -100 0 -14 -53 -74 -160 -180 -106 -105 -160 -166 -160 -180
0 -14 -36 -57 -100 -120 -69 -68 -100 -106 -100 -122 0 -14 -15 -36 -40 -58
-25 -22 -40 -44 -40 -59 0 -15 -20 -43 -60 -82 -33 -32 -60 -60 -60 -63 0 -9
-48 -53 -64 -59 -10 -4 -16 -18 -16 -36 0 -20 -7 -34 -20 -41 -11 -6 -20 -15
-20 -20 0 -15 -49 -60 -65 -60 -34 0 5 66 49 83 10 4 16 18 16 36 0 20 7 34
20 41 11 6 20 15 20 20 0 12 60 70 71 70 5 0 9 13 9 30 0 19 7 33 20 40 12 7
20 21 20 38 0 19 12 37 40 62 26 23 40 44 40 60 0 16 14 37 40 60 28 25 40 43
40 62 0 17 8 31 20 38 13 7 20 21 20 40 0 19 7 33 20 40 12 7 20 21 20 38 0
19 12 37 40 62 28 25 40 43 40 62 0 17 8 31 20 38 13 7 20 21 20 40 0 19 7 33
20 40 13 7 20 21 20 40 0 19 7 33 20 40 12 7 20 21 20 38 0 19 12 37 40 62 25
22 40 44 40 59 0 15 20 43 60 81 43 41 60 65 60 83 0 36 -20 45 -41 19 -13
-16 -28 -22 -61 -22 -38 0 -47 -5 -78 -40 l-35 -40 -87 0 c-77 0 -89 -2 -98
-20 -8 -15 -21 -20 -56 -20 -43 0 -48 -3 -134 -90 -57 -56 -90 -97 -90 -111 0
-13 -30 -50 -80 -99 -51 -50 -80 -86 -80 -100 0 -14 -29 -50 -80 -100 -51 -50
-80 -86 -80 -100 0 -14 -29 -50 -80 -100 -52 -51 -80 -86 -80 -100 0 -14 -22
-44 -59 -79 -41 -40 -60 -66 -63 -87 -3 -25 -8 -30 -38 -34 -30 -4 -35 -9 -38
-34 -3 -21 -30 -55 -103 -127 -68 -68 -99 -105 -99 -121 0 -14 -15 -36 -40
-58 -24 -22 -40 -44 -40 -58 0 -16 -52 -74 -180 -202 -117 -117 -180 -186
-180 -200 0 -13 -69 -90 -200 -220 -110 -110 -200 -205 -200 -210 0 -6 -9 -10
-20 -10 -13 0 -20 7 -20 19 0 11 9 23 20 26 13 4 20 15 20 33 0 19 12 38 40
62 26 23 40 44 40 60 0 16 14 37 40 60 26 23 40 44 40 60 0 16 14 37 40 60 26
23 40 44 40 60 0 16 14 37 40 60 26 23 40 44 40 60 0 16 14 37 40 60 26 23 40
44 40 60 0 16 14 37 40 60 26 23 40 44 40 60 0 16 14 37 40 60 26 23 40 44 40
60 0 16 14 37 40 60 26 23 40 44 40 60 0 16 14 37 40 60 26 23 40 44 40 60 0
16 14 37 40 60 26 23 40 44 40 60 0 16 14 37 40 60 28 24 40 43 40 62 0 37
-19 46 -41 20 -9 -12 -27 -22 -39 -22 -14 0 -50 -29 -100 -80 -51 -52 -86 -80
-100 -80 -14 0 -44 -22 -80 -60 -41 -43 -65 -60 -84 -60 -15 0 -30 -8 -36 -20
-7 -12 -21 -20 -38 -20 -19 0 -37 -12 -62 -40 -21 -24 -44 -40 -58 -40 -16 0
-85 -62 -241 -219 -168 -169 -225 -220 -247 -223 -25 -2 -30 -8 -34 -38 -4
-30 -9 -35 -35 -38 -19 -3 -43 -18 -66 -43 -32 -35 -41 -39 -82 -39 -36 0 -49
4 -57 20 -7 13 -21 20 -40 20 -19 0 -33 7 -40 20 -10 18 -21 20 -116 20 -103
0 -106 -1 -134 -28 -16 -16 -30 -42 -32 -58 -3 -29 -4 -29 -75 -32 -60 -2 -75
-6 -83 -22 -6 -12 -21 -20 -36 -20 -19 0 -55 -30 -144 -120 -77 -78 -126 -120
-140 -120 -14 0 -69 -48 -160 -140 -91 -91 -146 -140 -160 -140 -14 0 -69 -49
-160 -140 -91 -92 -146 -140 -160 -140 -14 0 -63 -42 -140 -120 -78 -79 -126
-120 -140 -120 -14 0 -56 -36 -120 -100 -64 -65 -106 -100 -120 -100 -14 0
-56 -35 -120 -100 -64 -65 -106 -100 -120 -100 -14 0 -56 -35 -120 -100 -64
-65 -106 -100 -120 -100 -14 0 -50 -29 -100 -80 -50 -51 -86 -80 -100 -80 -14
0 -56 -35 -120 -100 -64 -65 -106 -100 -120 -100 -14 0 -56 -35 -120 -100 -64
-65 -106 -100 -120 -100 -14 0 -56 -35 -120 -100 -64 -65 -106 -100 -120 -100
-14 0 -56 -35 -120 -100 -65 -66 -106 -100 -120 -100 -14 0 -44 -23 -80 -60
-36 -37 -66 -60 -80 -60 -14 0 -55 -34 -120 -100 -68 -69 -106 -100 -122 -100
-14 0 -36 -15 -58 -40 -22 -25 -44 -40 -58 -40 -16 0 -59 -36 -142 -120 -78
-79 -126 -120 -140 -120 -14 0 -50 -29 -100 -80 -50 -51 -86 -80 -100 -80 -14
0 -50 -29 -100 -80 -50 -51 -86 -80 -100 -80 -14 0 -50 -29 -100 -80 -50 -51
-86 -80 -100 -80 -14 0 -56 -35 -120 -100 -64 -65 -106 -100 -120 -100 -14 0
-50 -29 -100 -80 -51 -52 -86 -80 -100 -80 -14 0 -44 -22 -80 -60 -32 -33 -63
-60 -69 -60 -6 0 -11 -17 -11 -40 0 -33 4 -40 19 -40 10 0 21 9 24 20 5 20 14
20 3976 20 3960 0 3970 0 3981 20 7 13 21 20 40 20 19 0 33 7 40 20 7 12 21
20 38 20 19 0 37 12 62 40 25 28 43 40 62 40 17 0 31 8 38 20 7 13 21 20 40
20 19 0 33 7 40 20 7 12 21 20 38 20 19 0 37 12 62 40 25 28 43 40 62 40 17 0
31 8 38 20 7 13 21 20 40 20 19 0 33 7 40 20 7 12 21 20 38 20 19 0 37 12 62
40 23 26 44 40 60 40 16 0 37 14 60 40 23 26 44 40 60 40 16 0 37 14 60 40 23
26 44 40 60 40 16 0 37 14 60 40 22 25 44 40 58 40 16 0 49 25 102 80 50 51
86 80 100 80 14 0 62 41 140 120 79 80 126 120 141 120 13 0 43 23 79 60 36
37 66 60 80 60 14 0 55 34 120 100 73 74 105 100 124 100 15 0 30 8 36 20 7
12 21 20 38 20 19 0 37 12 62 40 25 28 43 40 62 40 17 0 31 8 38 20 7 12 21
20 38 20 19 0 37 12 62 40 25 28 43 40 62 40 17 0 31 8 38 20 7 12 21 20 38
20 19 0 37 12 62 40 23 26 44 40 60 40 16 0 37 14 60 40 23 26 44 40 60 40 16
0 37 14 60 40 25 28 43 40 62 40 17 0 31 8 38 20 7 12 21 20 38 20 19 0 37 12
62 40 23 26 44 40 60 40 16 0 37 14 60 40 23 26 44 40 60 40 16 0 37 14 60 40
23 26 44 40 60 40 16 0 37 14 60 40 23 26 44 40 60 40 16 0 37 14 60 40 22 25
44 40 58 40 16 0 64 41 162 140 90 90 146 140 160 140 14 0 113 93 300 280
190 190 286 280 301 280 13 0 50 30 99 80 57 58 85 80 104 80 42 0 41 -20 -3
-60 -28 -25 -41 -45 -41 -63 0 -16 -8 -30 -20 -37 -12 -6 -20 -21 -20 -36 0
-19 -17 -43 -60 -84 -38 -36 -60 -66 -60 -80 0 -14 -28 -49 -80 -100 -55 -54
-80 -86 -80 -102 0 -14 -12 -33 -31 -48 -60 -49 -129 -121 -129 -136 0 -27 29
-14 79 37 28 29 51 56 51 60 0 5 12 9 26 9 19 0 42 17 84 60 38 40 66 60 81
60 15 0 37 15 59 40 22 25 44 40 59 40 15 0 43 20 81 60 35 36 66 60 79 60 29
0 601 571 601 601 0 13 30 50 80 99 50 49 80 86 80 100 0 14 59 80 180 200
121 120 180 186 180 200 0 14 33 54 91 111 51 49 96 89 100 89 5 0 9 9 9 20 0
13 -7 20 -19 20 -11 0 -23 -9 -26 -20 -4 -14 -15 -20 -35 -20 -19 0 -33 -7
-40 -20 -7 -12 -21 -20 -38 -20 -19 0 -37 -12 -62 -40 -23 -26 -44 -40 -60
-40 -16 0 -37 -14 -60 -40 -25 -28 -43 -40 -62 -40 -17 0 -31 -8 -38 -20 -7
-12 -21 -20 -38 -20 -19 0 -37 -12 -62 -40 -23 -26 -44 -40 -60 -40 -16 0 -37
-14 -60 -40 -25 -28 -43 -40 -62 -40 -17 0 -31 -8 -38 -20 -6 -12 -21 -20 -36
-20 -19 0 -43 -17 -83 -59 -40 -41 -66 -60 -87 -63 -23 -2 -30 -8 -32 -31 -3
-21 -42 -68 -154 -180 l-151 -151 -17 22 c-27 33 -60 28 -100 -18 -25 -28 -43
-40 -62 -40 -17 0 -31 -8 -38 -20 -7 -13 -21 -20 -40 -20 -19 0 -33 -7 -40
-20 -7 -13 -21 -20 -40 -20 -19 0 -33 -7 -40 -20 -6 -12 -21 -20 -36 -20 -19
0 -43 -17 -84 -60 -41 -43 -65 -60 -84 -60 -15 0 -30 -8 -36 -20 -7 -12 -21
-20 -38 -20 -19 0 -37 -12 -62 -40 -25 -28 -43 -40 -62 -40 -17 0 -31 -8 -38
-20 -7 -13 -21 -20 -40 -20 -19 0 -33 -7 -40 -20 -7 -13 -21 -20 -40 -20 -19
0 -33 -7 -40 -20 -7 -13 -21 -20 -40 -20 -19 0 -33 -7 -40 -20 -7 -13 -21 -20
-40 -20 -19 0 -33 -7 -40 -20 -7 -13 -21 -20 -40 -20 -19 0 -33 -7 -40 -20 -7
-13 -21 -20 -40 -20 -19 0 -33 -7 -40 -20 -7 -14 -21 -20 -44 -20 -25 0 -35
-5 -39 -20 -4 -15 -14 -20 -37 -20 -23 0 -33 -5 -37 -20 -3 -11 -14 -20 -24
-20 -12 0 -19 7 -19 20 0 11 7 20 15 20 8 0 19 9 25 20 7 14 21 20 45 20 32 0
34 2 37 38 3 33 6 37 32 40 21 3 51 26 107 83 49 50 85 79 99 79 14 0 61 41
139 119 88 89 126 120 147 123 24 2 30 8 32 32 3 21 34 59 123 147 76 75 119
125 119 139 0 28 292 320 321 320 13 0 44 24 79 60 38 40 66 60 81 60 15 0 37
15 59 40 23 26 44 40 60 40 16 0 37 14 60 40 22 25 44 40 59 40 15 0 43 20 81
60 36 38 66 60 80 60 14 0 49 28 100 80 50 51 86 80 100 80 14 0 50 29 100 80
49 50 86 80 100 80 14 0 74 53 180 160 103 104 166 160 180 160 28 0 240 212
240 241 0 13 30 50 80 99 51 50 80 86 80 100 0 14 47 68 140 160 106 105 140
145 140 164 0 15 8 30 21 36 15 9 19 19 17 43 -2 26 -8 33 -30 35 -24 3 -49
-19 -187 -157 -120 -121 -165 -160 -187 -163 -24 -2 -30 -8 -32 -32 -3 -21
-26 -51 -82 -106 -56 -55 -79 -85 -82 -106 -2 -24 -8 -30 -32 -32 -21 -3 -47
-22 -87 -63 -36 -37 -65 -59 -79 -59 -14 0 -43 -22 -80 -60 -35 -37 -66 -60
-79 -60 -15 0 -80 -58 -201 -180 -119 -119 -186 -180 -200 -180 -14 0 -63 -43
-140 -120 -78 -79 -126 -120 -140 -120 -14 0 -56 -36 -120 -100 -68 -69 -106
-100 -122 -100 -14 0 -36 -15 -58 -40 -25 -28 -43 -40 -63 -40 -15 0 -30 -7
-33 -15 -10 -24 -134 -145 -150 -145 -8 0 -14 6 -14 14 0 16 121 140 145 150
8 3 15 17 15 31 0 20 24 50 100 125 66 65 100 106 100 120 0 14 23 44 60 80
38 37 60 66 60 80 0 14 22 43 60 80 38 37 60 66 60 80 0 14 22 43 60 80 40 38
60 66 60 81 0 15 15 37 40 59 25 22 40 44 40 58 0 16 31 54 100 122 64 63 100
106 100 120 0 27 132 160 160 160 28 0 320 292 320 320 0 14 57 77 160 180
106 106 160 166 160 180 0 14 39 60 111 131 61 60 115 109 120 109 5 0 9 9 9
20 0 13 -7 20 -19 20 -11 0 -23 -9 -26 -20 -4 -13 -15 -20 -32 -20 -18 0 -46
-22 -103 -80 -50 -51 -86 -80 -100 -80 -14 0 -68 -47 -159 -139 -104 -105
-146 -140 -167 -143 -25 -3 -30 -8 -34 -38 -4 -30 -9 -36 -34 -38 -22 -3 -86
-62 -287 -263 -170 -170 -265 -259 -279 -259 -30 0 -280 -252 -280 -282 0 -14
-16 -37 -40 -58 -28 -25 -40 -43 -40 -62 0 -17 -8 -31 -20 -38 -12 -6 -20 -21
-20 -36 0 -19 -25 -50 -99 -123 -73 -72 -100 -106 -103 -127 -2 -24 -8 -30
-32 -32 -21 -3 -59 -34 -146 -122 -87 -88 -125 -119 -146 -122 -24 -2 -30 -8
-32 -32 -3 -21 -34 -59 -123 -147 -83 -82 -119 -125 -119 -141 0 -14 -15 -36
-40 -58 -26 -23 -40 -44 -40 -60 0 -16 -14 -37 -40 -60 -26 -23 -40 -44 -40
-60 0 -16 -14 -37 -40 -60 -25 -22 -40 -44 -40 -58 0 -16 -25 -49 -80 -102
-50 -48 -80 -86 -80 -99 0 -14 -144 -165 -450 -471 -350 -350 -455 -450 -475
-450 -14 0 -29 -8 -35 -20 -9 -17 -21 -20 -80 -20 -59 0 -71 -3 -80 -20 -7
-13 -21 -20 -40 -20 -19 0 -33 -7 -40 -20 -9 -17 -21 -20 -80 -20 -59 0 -71
-3 -80 -20 -8 -16 -21 -20 -60 -20 -39 0 -52 -4 -60 -20 -8 -16 -21 -20 -58
-20 -42 0 -51 -4 -82 -40 -21 -24 -44 -40 -57 -40 -12 0 -31 -9 -41 -21 -26
-27 -115 -24 -120 4 -3 13 3 17 27 17 19 0 38 8 48 20 10 11 28 20 40 20 15 0
55 32 123 100 63 63 107 100 120 100 14 0 57 36 120 100 64 65 106 100 120
100 14 0 50 29 100 80 53 55 86 80 102 80 14 0 36 15 58 40 23 26 44 40 60 40
16 0 37 14 60 40 23 26 44 40 60 40 16 0 37 14 60 40 23 26 44 40 60 40 16 0
37 14 60 40 22 25 44 40 59 40 15 0 43 20 81 60 37 38 66 60 80 60 14 0 43 22
80 60 37 38 66 60 80 60 14 0 43 22 80 60 36 37 66 60 80 60 28 0 80 52 80 80
0 14 29 50 80 100 55 53 80 86 80 102 0 14 15 36 40 58 26 23 40 44 40 60 0
16 14 37 40 60 26 23 40 44 40 60 0 16 14 37 40 60 28 25 40 43 40 62 0 17 8
31 20 38 12 6 20 21 20 36 0 19 21 47 80 104 51 50 80 86 80 100 0 28 52 80
80 80 28 0 80 52 80 80 0 30 51 78 86 82 24 2 30 8 32 32 3 22 29 55 104 127
55 54 97 103 93 108 -15 25 -60 11 -95 -29 -22 -25 -44 -40 -58 -40 -16 0 -54
-31 -122 -100 -64 -65 -106 -100 -120 -100 -14 0 -56 -35 -120 -100 -65 -66
-106 -100 -120 -100 -14 0 -44 -23 -80 -60 -37 -38 -66 -60 -80 -60 -14 0 -43
-22 -80 -60 -36 -37 -66 -60 -80 -60 -28 0 -80 -52 -80 -80 0 -14 -54 -74
-160 -180 -108 -107 -160 -166 -160 -181 0 -13 -23 -43 -60 -79 -37 -36 -60
-66 -60 -79 0 -15 -46 -68 -140 -161 -91 -91 -140 -146 -140 -160 0 -30 -93
-120 -124 -120 -15 0 -30 -8 -36 -20 -7 -13 -21 -20 -40 -20 -19 0 -33 -7 -40
-20 -8 -16 -21 -20 -60 -20 -39 0 -52 -4 -60 -20 -6 -12 -21 -20 -36 -20 -19
0 -43 -17 -84 -60 -36 -38 -66 -60 -80 -60 -14 0 -49 -28 -100 -80 -51 -52
-86 -80 -100 -80 -14 0 -44 -22 -80 -60 -36 -37 -66 -60 -80 -60 -14 0 -55
-34 -120 -100 -65 -66 -106 -100 -120 -100 -14 0 -44 -23 -80 -60 -37 -38 -66
-60 -80 -60 -14 0 -43 -22 -80 -60 -41 -43 -65 -60 -84 -60 -15 0 -30 -8 -36
-20 -7 -13 -21 -20 -40 -20 -19 0 -33 -7 -40 -20 -7 -13 -21 -20 -40 -20 -19
0 -33 -7 -40 -20 -7 -13 -21 -20 -40 -20 -19 0 -33 -7 -40 -20 -8 -16 -21 -20
-60 -20 -39 0 -52 -4 -60 -20 -7 -13 -21 -20 -40 -20 -19 0 -33 -7 -40 -20 -8
-16 -21 -20 -60 -20 -39 0 -52 -4 -60 -20 -8 -16 -21 -20 -60 -20 -39 0 -52
-4 -60 -20 -7 -13 -21 -20 -40 -20 -19 0 -33 -7 -40 -20 -8 -16 -21 -20 -60
-20 -39 0 -52 -4 -60 -20 -7 -13 -21 -20 -40 -20 -19 0 -33 -7 -40 -20 -9 -17
-21 -20 -80 -20 -59 0 -71 -3 -80 -20 -7 -13 -21 -20 -40 -20 -19 0 -33 -7
-40 -20 -7 -13 -21 -20 -40 -20 -19 0 -33 -7 -40 -20 -7 -13 -21 -20 -40 -20
-19 0 -33 -7 -40 -20 -7 -13 -21 -20 -40 -20 -19 0 -33 -7 -40 -20 -7 -13 -21
-20 -40 -20 -19 0 -33 -7 -40 -20 -7 -12 -21 -20 -38 -20 -19 0 -37 -12 -62
-40 -25 -28 -43 -40 -62 -40 -17 0 -31 -8 -38 -20 -7 -13 -21 -20 -40 -20 -19
0 -33 -7 -40 -20 -7 -13 -21 -20 -41 -20 -22 0 -32 -5 -36 -20 -3 -11 -14 -20
-24 -20 -12 0 -19 7 -19 20 0 11 7 20 15 20 8 0 19 9 25 20 6 12 21 20 36 20
17 0 42 18 83 60 36 37 67 60 80 60 29 0 201 172 201 201 0 13 23 44 60 79 43
41 60 65 60 84 0 15 8 30 20 36 12 7 20 21 20 38 0 19 12 37 40 62 28 25 40
43 40 62 0 17 8 31 20 38 13 7 20 21 20 40 0 19 7 33 20 40 13 7 20 21 20 40
0 19 7 33 20 40 13 7 20 21 20 40 0 19 7 33 20 40 13 7 20 21 20 40 0 38 -19
48 -41 22 -9 -12 -29 -22 -43 -22 -15 0 -30 -8 -36 -20 -7 -13 -21 -20 -40
-20 -19 0 -33 -7 -40 -20 -7 -13 -21 -20 -40 -20 -19 0 -33 -7 -40 -20 -7 -13
-21 -20 -40 -20 -19 0 -33 -7 -40 -20 -7 -13 -21 -20 -40 -20 -19 0 -33 -7
-40 -20 -8 -16 -21 -20 -60 -20 -39 0 -52 -4 -60 -20 -7 -13 -21 -20 -40 -20
-19 0 -33 -7 -40 -20 -7 -13 -21 -20 -40 -20 -19 0 -33 -7 -40 -20 -7 -13 -21
-20 -40 -20 -19 0 -33 -7 -40 -20 -8 -16 -21 -20 -58 -20 -42 0 -51 -4 -82
-40 -23 -26 -44 -40 -60 -40 -16 0 -37 -14 -60 -40 -23 -26 -44 -40 -60 -40
-16 0 -37 -14 -60 -40 -22 -25 -44 -40 -58 -40 -16 0 -54 -31 -122 -100 -68
-69 -106 -100 -122 -100 -14 0 -36 -15 -58 -40 -23 -26 -44 -40 -60 -40 -16 0
-37 -14 -60 -40 -22 -25 -44 -40 -58 -40 -16 0 -49 -25 -102 -80 -53 -55 -86
-80 -102 -80 -14 0 -36 -15 -58 -40 -22 -25 -44 -40 -59 -40 -15 0 -43 -20
-81 -60 -37 -38 -66 -60 -80 -60 -14 0 -43 -22 -80 -60 -38 -40 -66 -60 -81
-60 -15 0 -37 -15 -59 -40 -23 -26 -44 -40 -60 -40 -16 0 -37 -14 -60 -40 -25
-29 -43 -40 -63 -40 -20 0 -30 -6 -34 -20 -3 -11 -10 -20 -15 -20 -6 0 -27
-19 -48 -42 -42 -47 -64 -44 -58 8 3 25 8 29 37 32 23 2 35 9 38 23 3 10 9 19
14 19 5 0 112 103 239 230 154 153 230 236 230 250 0 14 37 57 100 120 66 65
100 106 100 120 0 14 23 44 60 80 37 36 60 66 60 80 0 14 34 55 100 120 64 63
100 106 100 120 0 31 172 200 204 200 15 0 30 8 36 20 8 16 21 20 60 20 39 0
52 4 60 20 8 16 21 20 60 20 39 0 52 4 60 20 7 13 21 20 40 20 19 0 33 7 40
20 7 13 21 20 40 20 19 0 33 7 40 20 7 13 21 20 40 20 19 0 33 7 40 20 7 13
21 20 40 20 19 0 33 7 40 20 7 13 21 20 40 20 19 0 33 7 40 20 7 13 21 20 40
20 19 0 33 7 40 20 8 16 21 20 60 20 39 0 52 4 60 20 7 13 21 20 40 20 19 0
33 7 40 20 7 13 21 20 40 20 19 0 33 7 40 20 7 13 21 20 40 20 19 0 33 7 40
20 7 13 21 20 40 20 19 0 33 7 40 20 8 16 21 20 60 20 39 0 52 4 60 20 7 13
21 20 40 20 19 0 33 7 40 20 7 13 21 20 40 20 19 0 33 7 40 20 7 13 21 20 40
20 19 0 33 7 40 20 7 13 21 20 40 20 19 0 33 7 40 20 7 12 21 20 38 20 19 0
37 12 62 40 22 25 44 40 59 40 15 0 43 20 81 60 38 40 66 60 81 60 15 0 37 15
59 40 22 25 44 40 59 40 15 0 43 20 81 60 38 40 66 60 81 60 15 0 37 15 59 40
23 26 44 40 60 40 16 0 37 14 60 40 23 26 44 40 60 40 16 0 37 14 60 40 25 28
43 40 62 40 17 0 31 8 38 20 7 13 21 20 40 20 19 0 33 7 40 20 7 12 21 20 38
20 19 0 37 12 62 40 22 25 44 40 58 40 16 0 46 23 93 71 l69 71 0 63 c0 55 -3
65 -20 70 -11 3 -20 13 -20 20 0 8 9 19 20 25 11 6 20 17 20 25 0 7 -9 17 -20
20 -17 6 -20 15 -20 75 0 59 3 71 20 80 13 7 20 21 20 40 0 19 -7 33 -20 40
-18 10 -20 21 -20 125 0 90 -3 115 -14 115 -20 0 -66 -60 -66 -87 0 -12 -9
-27 -20 -33 -13 -7 -20 -21 -20 -40 0 -19 -7 -33 -20 -40 -13 -7 -20 -21 -20
-40 0 -19 -7 -33 -20 -40 -13 -7 -20 -21 -20 -40 0 -19 -7 -33 -20 -40 -12 -7
-20 -21 -20 -38 -1 -30 -52 -88 -69 -77 -19 11 -13 63 9 75 13 7 20 21 20 40
0 19 7 33 20 40 13 7 20 21 20 40 0 19 7 33 20 40 13 7 20 21 20 40 0 19 7 33
20 40 13 7 20 21 20 38 0 15 9 35 20 45 14 12 20 29 20 62 0 34 5 47 20 55 13
7 20 21 20 40 0 19 7 33 20 40 13 7 20 21 20 40 0 19 7 33 20 40 18 9 20 21
20 100 0 79 2 91 20 100 17 9 20 21 20 80 0 59 3 71 20 80 16 8 20 21 20 60 0
39 4 52 20 60 16 8 20 21 20 60 0 39 4 52 20 60 16 8 20 21 20 60 0 39 4 52
20 60 13 7 20 21 20 40 0 19 7 33 20 40 16 8 20 21 20 60 0 39 4 52 20 60 16
8 20 21 20 60 0 39 4 52 20 60 13 7 20 21 20 40 0 19 7 33 20 40 13 7 20 21
20 39 0 18 8 34 23 44 l22 15 -29 31 c-38 40 -56 40 -56 0 0 -25 -12 -43 -60
-89 -38 -36 -60 -66 -60 -80 0 -14 -28 -49 -79 -99 -57 -56 -80 -86 -83 -107
-3 -25 -8 -30 -38 -34 -30 -4 -35 -9 -38 -34 -3 -21 -22 -47 -63 -87 -36 -34
-59 -65 -59 -78 0 -30 -212 -241 -242 -241 -14 0 -37 -16 -58 -40 -23 -26 -44
-40 -60 -40 -16 0 -37 -14 -60 -40 -22 -25 -44 -40 -58 -40 -16 0 -49 -25
-102 -80 -53 -55 -86 -80 -102 -80 -14 0 -36 -15 -58 -40 -25 -28 -43 -40 -62
-40 -17 0 -31 -8 -38 -20 -6 -12 -21 -20 -36 -20 -19 0 -43 -17 -84 -60 -37
-38 -66 -60 -80 -60 -14 0 -43 -22 -80 -60 -37 -38 -66 -60 -80 -60 -14 0 -43
-22 -80 -60 -37 -38 -66 -60 -80 -60 -14 0 -43 -22 -80 -60 -37 -38 -66 -60
-80 -60 -14 0 -43 -22 -80 -60 -38 -40 -66 -60 -81 -60 -15 0 -37 -15 -59 -40
-22 -25 -44 -40 -58 -40 -16 0 -49 -25 -102 -80 -51 -52 -86 -80 -100 -80 -14
0 -44 -22 -80 -60 -38 -40 -66 -60 -81 -60 -15 0 -37 -15 -59 -40 -22 -25 -44
-40 -59 -40 -15 0 -43 -20 -81 -60 -37 -38 -66 -60 -80 -60 -14 0 -43 -22 -80
-60 -41 -43 -65 -60 -84 -60 -15 0 -30 -8 -36 -20 -6 -12 -21 -20 -36 -20 -19
0 -43 -17 -84 -60 -38 -40 -66 -60 -81 -60 -15 0 -37 -15 -59 -40 -25 -28 -43
-40 -62 -40 -17 0 -31 -8 -38 -20 -6 -12 -21 -20 -36 -20 -19 0 -43 -17 -84
-60 -37 -38 -66 -60 -80 -60 -14 0 -43 -22 -80 -60 -38 -40 -66 -60 -81 -60
-15 0 -37 -15 -59 -40 -25 -28 -43 -40 -62 -40 -17 0 -31 -8 -38 -20 -7 -12
-21 -20 -38 -20 -19 0 -37 -12 -62 -40 -22 -26 -44 -40 -59 -40 -15 0 -38 -15
-60 -39 -23 -25 -47 -40 -66 -43 -26 -3 -31 -8 -35 -38 -4 -31 -9 -35 -37 -38
-20 -2 -37 -11 -43 -23 -7 -11 -21 -19 -38 -19 -19 0 -37 -12 -62 -40 -35 -40
-80 -54 -95 -30 -9 15 130 150 155 150 28 0 280 252 280 280 0 14 56 77 160
180 103 103 160 166 160 180 0 30 452 480 482 480 14 0 37 16 58 40 23 26 44
40 60 40 16 0 37 14 60 40 25 28 43 40 62 40 17 0 31 8 38 20 6 12 21 20 36
20 19 0 43 17 84 60 41 43 65 60 84 60 15 0 30 8 36 20 7 12 21 20 38 20 19 0
37 12 62 40 25 28 43 40 62 40 17 0 31 8 38 20 7 13 21 20 40 20 19 0 33 7 40
20 7 12 21 20 38 20 19 0 37 12 62 40 25 28 43 40 62 40 17 0 31 8 38 20 7 12
21 20 38 20 19 0 37 12 62 40 25 28 43 40 62 40 17 0 31 8 38 20 7 12 21 20
38 20 19 0 37 12 62 40 25 28 43 40 62 40 17 0 31 8 38 20 7 13 21 20 40 20
19 0 33 7 40 20 7 13 21 20 40 20 19 0 33 7 40 20 6 12 21 20 35 20 20 0 108
83 395 370 244 244 370 377 370 390 0 13 97 117 280 300 187 186 280 286 280
300 0 14 56 76 159 179 121 120 160 165 163 187 3 25 8 30 38 34 30 4 35 9 38
34 3 21 30 55 103 127 63 62 99 105 99 119 0 30 93 120 124 120 15 0 30 8 36
20 8 16 21 20 60 20 39 0 52 4 60 20 8 16 21 20 60 20 39 0 52 4 60 20 6 12
21 20 36 20 32 0 244 209 244 241 0 14 23 43 61 79 63 60 68 80 21 80 -19 0
-38 -12 -62 -40z m-4865 -3500 c0 -18 -52 -27 -67 -12 -17 17 2 33 35 30 20
-2 32 -8 32 -18z m-75 -80 c0 -13 -7 -20 -20 -20 -13 0 -20 7 -20 20 0 13 7
20 20 20 13 0 20 -7 20 -20z m-80 -80 c0 -13 -7 -20 -20 -20 -13 0 -20 7 -20
20 0 13 7 20 20 20 13 0 20 -7 20 -20z m6800 -200 c0 -13 -7 -20 -20 -20 -13
0 -20 7 -20 20 0 13 7 20 20 20 13 0 20 -7 20 -20z m-1520 -715 c0 -18 -47
-65 -65 -65 -22 0 -18 26 8 54 25 27 57 34 57 11z m-5760 -365 c0 -13 -7 -20
-20 -20 -13 0 -20 7 -20 20 0 13 7 20 20 20 13 0 20 -7 20 -20z m0 -1680 c0
-13 -7 -20 -20 -20 -13 0 -20 7 -20 20 0 13 7 20 20 20 13 0 20 -7 20 -20z"/>
<path d="M15457 7039 c-21 -21 -47 -39 -58 -39 -32 0 -79 -53 -79 -89 0 -42
17 -39 63 9 24 26 46 40 62 40 14 0 29 8 35 20 7 12 21 20 38 20 30 1 88 52
77 69 -3 6 -27 11 -53 10 -41 0 -52 -5 -85 -40z"/>
<path d="M15008 6589 c-82 -83 -128 -137 -128 -150 0 -13 -24 -44 -60 -79 -43
-41 -60 -65 -60 -84 0 -15 -8 -30 -20 -36 -13 -7 -20 -21 -20 -40 0 -19 -7
-33 -20 -40 -17 -9 -20 -21 -20 -80 0 -59 3 -71 20 -80 34 -18 25 -60 -20
-100 -25 -22 -40 -44 -40 -59 0 -15 -20 -43 -60 -81 -40 -38 -60 -66 -60 -81
0 -15 -15 -37 -40 -59 -25 -22 -40 -44 -40 -58 0 -16 -31 -54 -100 -122 -77
-76 -100 -105 -100 -125 0 -18 -6 -29 -20 -32 -29 -8 -24 -34 12 -62 l31 -25
17 22 c10 12 28 22 39 22 31 0 401 372 401 402 0 14 16 37 40 58 28 25 40 43
40 62 0 17 8 31 20 38 13 7 20 21 20 40 0 19 7 33 20 40 19 10 20 21 20 160 0
139 1 150 20 160 13 7 20 21 20 40 0 19 7 33 20 40 12 7 20 21 20 38 0 19 12
37 40 62 25 22 40 44 40 59 0 15 20 43 60 81 44 43 60 65 60 85 0 18 6 28 20
32 11 3 20 12 20 20 0 13 -48 63 -60 62 -3 0 -62 -58 -132 -130z"/>
<path d="M15800 4900 c-7 -12 -21 -20 -38 -20 -19 0 -37 -12 -62 -40 -25 -28
-43 -40 -62 -40 -17 0 -31 -8 -38 -20 -7 -13 -21 -20 -40 -20 -19 0 -33 -7
-40 -20 -7 -13 -21 -20 -40 -20 -19 0 -33 -7 -40 -20 -8 -16 -21 -20 -58 -20
-42 0 -51 -4 -82 -40 -22 -25 -44 -40 -59 -40 -15 0 -43 -20 -81 -60 -36 -37
-66 -60 -80 -60 -14 0 -55 -34 -120 -100 -64 -65 -106 -100 -120 -100 -14 0
-50 -29 -100 -80 -53 -55 -86 -80 -102 -80 -14 0 -36 -15 -58 -40 -23 -26 -44
-40 -60 -40 -16 0 -37 -14 -60 -40 -23 -26 -44 -40 -60 -40 -16 0 -37 -14 -60
-40 -23 -26 -44 -40 -60 -40 -16 0 -37 -14 -60 -40 -22 -25 -44 -40 -59 -40
-16 0 -43 -20 -83 -62 l-59 -63 -19 23 c-23 28 -66 29 -80 2 -9 -18 -21 -20
-100 -20 -79 0 -91 -2 -100 -20 -9 -17 -21 -20 -76 -20 l-65 0 -69 -70 c-65
-64 -70 -73 -70 -112 0 -38 -5 -47 -40 -78 -26 -23 -40 -44 -40 -60 0 -16 -14
-37 -40 -60 -24 -21 -40 -44 -40 -58 0 -33 -208 -239 -247 -244 -24 -2 -29 -8
-33 -38 -4 -31 -9 -36 -40 -40 -30 -4 -35 -9 -38 -34 -3 -21 -22 -47 -63 -87
-55 -53 -59 -60 -59 -103 0 -35 -4 -48 -20 -56 -12 -7 -20 -21 -20 -38 0 -19
-12 -37 -40 -62 -26 -23 -40 -44 -40 -60 0 -16 -14 -37 -40 -60 -25 -22 -40
-44 -40 -59 0 -16 -25 -47 -81 -101 -81 -79 -90 -100 -42 -100 18 0 42 17 83
60 36 38 66 60 80 60 14 0 49 28 100 80 49 50 86 80 99 80 29 0 401 372 401
400 0 28 292 320 321 320 13 0 50 30 99 80 49 50 86 80 99 80 28 0 161 132
161 160 0 22 89 120 108 120 8 0 12 -31 12 -100 0 -82 3 -100 15 -100 8 0 20
9 27 20 7 11 23 20 36 20 16 0 58 35 142 120 77 77 126 120 140 120 14 0 88
67 220 200 134 134 206 200 220 200 28 0 80 52 80 80 0 14 22 44 59 79 41 40
60 66 63 87 2 24 8 30 33 32 19 3 43 18 66 43 24 26 44 39 62 39 16 0 30 8 37
20 7 13 21 20 40 20 19 0 33 7 40 20 7 12 21 20 38 20 19 0 37 12 62 40 25 28
43 40 62 40 17 0 31 8 38 20 6 12 21 20 35 20 19 0 63 38 176 150 82 82 147
154 144 160 -11 18 -64 11 -75 -10z"/>
<path d="M15438 4261 c-10 -16 -23 -21 -60 -21 -37 0 -50 -4 -58 -20 -7 -13
-21 -20 -40 -20 -19 0 -33 -7 -40 -20 -6 -12 -21 -20 -36 -20 -19 0 -43 -17
-84 -60 -37 -38 -66 -60 -80 -60 -14 0 -43 -22 -80 -60 -36 -37 -66 -60 -80
-60 -14 0 -55 -34 -120 -100 -63 -64 -106 -100 -120 -100 -14 0 -81 -60 -200
-180 -121 -122 -186 -180 -201 -180 -13 0 -43 -23 -78 -59 -40 -41 -66 -60
-87 -63 -25 -3 -29 -8 -32 -35 -2 -20 -11 -37 -23 -43 -12 -7 -19 -21 -19 -40
0 -19 -7 -33 -20 -40 -13 -7 -20 -21 -20 -40 0 -19 -7 -33 -20 -40 -11 -6 -20
-15 -20 -20 0 -12 -60 -70 -71 -70 -5 0 -9 -12 -9 -27 0 -29 -52 -83 -80 -83
-24 0 -40 -21 -40 -52 0 -33 19 -37 45 -8 10 11 27 20 37 20 11 0 61 42 118
100 64 65 106 100 120 100 14 0 50 29 100 80 49 50 86 80 99 80 15 0 124 102
341 320 216 216 326 320 340 320 14 0 57 37 120 100 64 65 106 100 120 100 14
0 50 29 100 80 49 51 86 80 100 80 12 0 42 21 71 50 39 39 50 56 47 77 -4 34
-23 40 -40 14z"/>
<path d="M15198 3783 c-9 -10 -30 -30 -47 -45 -33 -29 -41 -58 -16 -58 15 0
75 57 75 71 0 4 15 9 33 11 42 4 44 32 2 36 -19 2 -36 -4 -47 -15z"/>
<path d="M15023 3654 c-26 -28 -30 -54 -8 -54 18 0 65 47 65 65 0 23 -32 16
-57 -11z"/>
<path d="M14903 3574 c-26 -28 -30 -54 -8 -54 18 0 65 47 65 65 0 23 -32 16
-57 -11z"/>
<path d="M14795 3501 c-4 -13 -17 -21 -38 -23 -29 -3 -32 -6 -35 -40 -4 -51
16 -50 61 2 19 22 39 40 45 40 7 0 12 9 12 20 0 26 -36 27 -45 1z"/>
<path d="M13820 3040 c-79 -82 -122 -119 -138 -119 -16 -1 -72 -50 -182 -160
-118 -119 -166 -160 -187 -163 -40 -4 -37 -32 4 -36 24 -2 34 2 43 17 7 13 21
21 38 21 19 0 37 12 62 40 25 28 43 40 62 40 17 0 31 8 38 20 6 12 21 20 35
20 18 0 55 30 135 111 60 60 110 112 110 114 0 8 49 52 64 58 9 4 16 18 16 34
0 16 9 36 21 46 21 18 24 68 4 73 -5 2 -62 -50 -125 -116z"/>
<path d="M12063 2654 c-26 -28 -30 -54 -8 -54 18 0 65 47 65 65 0 23 -32 16
-57 -11z"/>
</g>
</svg>
